<?xml version="1.0" encoding="UTF-8"?>
<svg id="_レイヤー_2" data-name="レイヤー 2" xmlns="http://www.w3.org/2000/svg" viewBox="0 0 103.5468728 37.2793098">
  <defs>
    <style>
      .cls-1 {
        fill: #da7d25;
        stroke-width: 0px;
      }
    </style>
  </defs>
  <g id="_レイヤー_2-2" data-name="レイヤー 2">
    <g>
      <rect class="cls-1" x="72.4854556" y="5.177205" width="6.9380242" height="26.9238334"/>
      <path class="cls-1" d="m96.5058356,25.7820523c-.7408194,0-1.3471674-.6027223-1.3471674-1.3435417V5.1777382h-6.8313854v20.3545661c0,3.623585,2.9387509,6.5692673,6.5641487,6.5692673h8.6554413v-6.3195194h-7.0410372Z"/>
      <path class="cls-1" d="m49.1292218,18.6387485c0,1.3803321.1956821,3.1187571,1.8974234,5.5315656l9.2302242,13.1089957,5.5892572-3.9398755-9.2634955-13.1456795c-.3215159-.5049345-.5346867-.9592156-.5346867-1.5550064,0-.597497.2131709-1.0534843.5346867-1.5548997l9.2634955-13.1456795-5.5892572-3.9381693-9.2302242,13.1037704c-1.7017413,2.4180338-1.8974234,4.1512335-1.8974234,5.534978"/>
      <rect class="cls-1" x="23.1942495" y="5.177205" width="6.9397304" height="26.9238334"/>
      <path class="cls-1" d="m8.1785528,25.7820523c-.7408194,0-1.3453546-.6027223-1.3453546-1.3435417V5.1777382H0v20.3545661c0,3.623585,2.9387509,6.5692673,6.5641487,6.5692673h8.6554413v-6.3195194h-7.0410372Z"/>
      <path class="cls-1" d="m53.4860548,18.6387485c0,1.3803321-.1957888,3.1187571-1.8957172,5.5315656l-9.23385,13.1089957-5.5874443-3.9398755,9.2634955-13.1456795c.3215159-.5049345.5311676-.9592156.5311676-1.5550064,0-.597497-.2096518-1.0534843-.5311676-1.5548997l-9.2634955-13.1456795,5.5874443-3.9381693,9.23385,13.1037704c1.6999284,2.4180338,1.8957172,4.1512335,1.8957172,5.534978"/>
    </g>
  </g>
</svg>