<?xml version="1.0" encoding="UTF-8"?>
<svg id="_レイヤー_2" data-name="レイヤー 2" xmlns="http://www.w3.org/2000/svg" viewBox="0 0 1053.1611328 113.7080078">
  <defs>
    <style>
      .cls-1 {
        fill: #a5000c;
        stroke-width: 0px;
      }
    </style>
  </defs>
  <g id="_レイヤー_1-2" data-name="レイヤー 1">
    <g>
      <path class="cls-1" d="m107.831543,6.8535156v37.4072266h-6.0898438v-2.7597656h-21.7426758v2.7597656h-6.137207V6.8535156h9.4204102c.3330078-.7138672,1.7124023-3.9023438,2.0932617-6.3300781l6.9936523.8564453c.6186523.0957031.8564453.3339844.8564453.6191406,0,.5712891-.6660156.7138672-1.3798828.9042969-.9038086,1.9990234-1.2841797,2.7607422-1.9506836,3.9501953h17.9365234Zm-27.8325195,9.8994141h21.7426758v-4.7119141h-21.7426758v4.7119141Zm21.7426758,5.0449219h-21.7426758v4.7109375h21.7426758v-4.7109375Zm0,9.8037109h-21.7426758v4.7119141h21.7426758v-4.7119141Z"/>
      <path class="cls-1" d="m127.1508789,41.7382812v2.5703125h-6.1845703V10.2324219h16.2236328V.7138672l6.0898438.2861328c.6181641.046875,1.1416016.0947266,1.1416016.5234375,0,.5234375-.3803711.6660156-1.1416016.9990234v7.7099609h16.2236328v34.0761719h-6.137207v-2.5703125h-26.215332Zm10.0390625-18.4179688v-7.8525391h-10.0390625v7.8525391h10.0390625Zm0,13.3261719v-7.9960938h-10.0390625v7.9960938h10.0390625Zm16.1762695-13.3261719v-7.8525391h-10.0864258v7.8525391h10.0864258Zm0,13.3261719v-7.9960938h-10.0864258v7.9960938h10.0864258Z"/>
      <path class="cls-1" d="m188.0092773,8.5664062v4.4267578h-18.6977539v-4.4267578h18.6977539Zm-1.4272461,19.4179688v15.7529297h-5.3759766v-1.7607422h-4.9008789v2.3320312h-5.4233398v-16.3242188h15.7001953Zm-1.0942383-26.1279297v4.5683594h-14.2255859V1.8564453h14.2255859Zm0,13.2783203v4.140625h-14.2255859v-4.140625h14.2255859Zm0,6.4726562v4.1396484h-14.2255859v-4.1396484h14.2255859Zm-9.1826172,10.8505859v4.6162109h4.9008789v-4.6162109h-4.9008789Zm18.0795898-5.9492188h-5.7094727v-5.0449219h20.5058594l2.0458984,2.4277344c-1.4750977,3.5693359-3.3305664,7.28125-6.8510742,11.5644531,5.2807617,3.2841797,8.3735352,3.9501953,9.8959961,4.2363281-1.6176758,1.6181641-2.5693359,2.9501953-3.4257812,4.7109375-4.7578125-1.5224609-8.5161133-3.6640625-10.5620117-5.0449219-3.3305664,2.5703125-6.2324219,4.09375-9.8959961,5.4257812-.8564453-1.7128906-2.8544922-4.0927734-3.7587891-4.8066406,1.284668-.3330078,5.2338867-1.2373047,9.4204102-4.2353516-3.4731445-3.6650391-4.6147461-5.9013672-5.1381836-6.9492188l3.4731445-2.2841797Zm12.2270508-24.6044922v11.1835938c0,.5234375.2856445.9521484.8564453.9521484h.9516602c1.4272461,0,1.6176758-2.7128906,1.7602539-4.1884766,2.0932617,1.6181641,3.5683594,1.9990234,4.3295898,2.1894531-.9516602,5.0927734-1.9033203,6.9960938-4.7578125,6.9960938h-4.5200195c-3.5205078,0-4.0913086-2.7607422-4.0913086-4.5214844v-7.7099609h-4.4248047c-.1904297,4.9023438-.3803711,9.7089844-4.6147461,14.2304688-1.046875-.9521484-2.9975586-2.3320312-5.043457-2.8554688,3.9492188-3.3320312,3.9492188-7.9482422,3.9492188-11.1367188V1.9042969h15.6049805Zm-10.9902344,24.6044922c1.4272461,2.4746094,3.0449219,4.2363281,4.5200195,5.6162109,1.3320312-1.4755859,2.7119141-3.2363281,3.8061523-5.6162109h-8.3261719Z"/>
      <path class="cls-1" d="m241.9931641,9.0429688v4.6162109h-19.9824219v-4.6162109h19.9824219Zm-1.1894531,19.2744141v15.5625h-5.8994141v-1.6181641h-5.4238281v2.3320312h-5.7568359v-16.2763672h17.0800781Zm-.8564453-25.8896484v4.6640625h-15.3198242V2.4277344h15.3198242Zm0,13.2304688v4.1875h-15.3198242v-4.1875h15.3198242Zm0,6.234375v4.3310547h-15.3198242v-4.3310547h15.3198242Zm-10.4667969,11.0888672v4.6162109h5.4238281v-4.6162109h-5.4238281Zm37.2524414-17.8945312v5.3779297h-9.324707v24.1767578h-6.1850586v-24.1767578h-8.8017578v-5.3779297h8.8017578V.9521484l6.1850586.3808594c.4755859.046875,1.0463867.046875,1.0463867.6660156,0,.3330078-.1899414.4755859-1.0463867.9042969v12.1835938h9.324707Z"/>
      <path class="cls-1" d="m316.1069336,8.8046875c-11.894043-.0478516-22.4560547,9.7089844-22.4560547,18.4179688,0,5.5683594,3.9008789,9.1855469,13.9873047,9.9472656-1.8554688,3.4736328-2.5688477,5.7109375-2.9970703,7.1865234-7.2319336-1.6181641-17.3657227-5.7587891-17.3657227-16.5625,0-6.3769531,3.6157227-11.8505859,9.9912109-16.7519531-3.0449219.1894531-17.0800781,1.8076172-21.6953125,2.9980469l-.9038086-7.6621094c.9038086.0947266,1.8081055.1425781,3.0922852.1425781,3.2353516,0,23.0751953-.8095703,37.1103516-4.5214844l1.2368164,6.8056641Zm-7.9453125,7.6621094c.6660156.7617188,3.0449219,3.5224609,4.1391602,5.140625-1.189472.8564453-2.9023438,2.4746094-3.1875,2.7597656-1.6176758-2.3798828-2.4267578-3.4736328-4.0439453-5.2822266l3.0922852-2.6181641Zm4.5673828-3.5214844c1.3320312,1.1425781,3.3779297,3.6640625,4.3295898,5.0449219-1.046875.7138672-2.1884766,1.8085938-3.0927734,2.7128906-1.4746094-2.2373047-2.378418-3.3798828-4.1865234-5.3779297l2.949707-2.3798828Z"/>
      <path class="cls-1" d="m348.6855469,43.6894531c-.5708008,0-9.8486328,0-15.1772461-4.6640625-2.0454102,3.0458984-4.0913086,4.9023438-5.2333984,5.9492188-1.6650391-1.7128906-2.9970703-2.4746094-4.6147461-3.140625,1.5698242-1.2851562,3.8535156-3.3320312,6.0898438-7.0439453-2.6645508-3.9501953-3.5683594-7.5673828-4.0917969-10.0898438l4.7104492-1.1894531c.7133789,3.2363281,1.3320312,4.7119141,1.8554688,5.9013672,1.1416016-3.6650391,1.2841797-6.3300781,1.3793945-7.8046875h-3.1401367c-.9038086,1.1894531-1.2368164,1.5703125-1.6650391,2.1416016-1.2368164-1.1425781-2.7592773-1.8564453-4.9956055-2.5224609,2.949707-3.7597656,4.9956055-7.6630859,6.9941406-12.2792969h-5.9472656V3.4267578h11.65625l2.2363281,2.7128906c-2.331543,5.7587891-4.6152344,9.7089844-4.9956055,10.2802734h5.3759766c-.0952148,2.7597656-.2856445,11.3740234-3.2353516,18.0849609,3.996582,3.8066406,7.7553711,4.0927734,13.8452148,4.0927734,5.7568359,0,15.4145508,0,19.9345703-.9042969-1.6650391,2.5693359-2.0458984,5.4257812-2.0932617,5.9960938h-18.8881836Zm.0952148-22.3681641h-7.8979492v-3.9501953h7.8979492v-2.7128906h-10.4667969v-3.9501953h10.4667969v-2.6650391h-7.8979492v-3.9970703h7.8979492V.7138672l5.7089844.1904297c.4282227,0,.809082.1904297.809082.6660156,0,.4287109-.3808594.6669922-.809082.8574219v1.6181641h10.0864258v6.6621094h3.7587891v3.9501953h-3.7587891v6.6630859h-10.0864258v2.5703125h10.3720703v3.9501953h-10.3720703v2.4746094h12.8461914v4.2353516h-12.8461914v2.8085938h-5.7089844v-2.8085938h-9.9912109v-4.2353516h9.9912109v-2.4746094h-7.8979492v-3.9501953h7.8979492v-2.5703125Zm5.7089844-13.2783203v2.6650391h4.6625977v-2.6650391h-4.6625977Zm0,6.6152344v2.7128906h4.6625977v-2.7128906h-4.6625977Z"/>
      <path class="cls-1" d="m418.4794922,8.8046875c-11.894043-.0478516-22.4560547,9.7089844-22.4560547,18.4179688,0,5.5683594,3.9013672,9.1855469,13.9873047,9.9472656-1.8554688,3.4736328-2.5688477,5.7109375-2.9970703,7.1865234-7.2319336-1.6181641-17.3657227-5.7587891-17.3657227-16.5625,0-6.3769531,3.6157227-11.8505859,9.9912109-16.7519531-3.0449219.1894531-17.0800781,1.8076172-21.6953125,2.9980469l-.9038086-7.6621094c.9038086.0947266,1.8081055.1425781,3.0927734.1425781,3.2348633,0,23.074707-.8095703,37.1098633-4.5214844l1.2368164,6.8056641Z"/>
      <path class="cls-1" d="m457.0097656,6.1396484c-2.9023438,2.1894531-10.7998047,9.6132812-12.6079102,11.5644531,1.2368164-.3808594,3.2353516-1.046875,6.2324219-1.046875,7.0415039,0,13.4643555,4.140625,13.4643555,12.3261719,0,10.375-10.0864258,14.7539062-17.8413086,14.7539062-7.3266602,0-11.5610352-3.4746094-11.5610352-7.9951172,0-4.0927734,3.7109375-7.1386719,8.6586914-7.1386719,3.6157227,0,9.0395508,1.9033203,10.1337891,7.5195312,4.234375-1.9521484,4.234375-5.6640625,4.234375-6.6162109,0-2.7597656-1.6176758-7.5664062-8.5634766-7.5664062-8.3261719,0-13.1313477,4.9970703-19.8398438,11.9453125l-4.8525391-4.7587891c5.090332-3.5224609,18.03125-16.3242188,20.7431641-19.8935547-4.1391602.9042969-11.3706055,1.5703125-14.4155273,1.8085938l-1.046875-6.3779297c3.5683594.1425781,16.699707-.1425781,23.9790039-2.9033203l3.2827148,4.3789062Zm-13.987793,27.6513672c-1.7602539,0-2.6166992,1.046875-2.6166992,2.1416016,0,1.9033203,2.6166992,2.9501953,4.9482422,2.9501953,1.2368164,0,2.2836914-.2382812,2.8544922-.3808594-.4282227-2.9501953-2.4262695-4.7109375-5.1860352-4.7109375Z"/>
      <path class="cls-1" d="m477.456543,30.6494141c4.9477539,2.9980469,8.706543,6.5673828,10.371582,8.1855469l-4.6147461,4.6171875c-2.8071289-3.4746094-5.8999023-6.1396484-9.6582031-8.5673828l3.9013672-4.2353516Z"/>
      <path class="cls-1" d="m521.4960938,11.6601562h6.9941406c-.5712891-.9990234-.9990234-1.7128906-1.6650391-2.8076172l2.7587891-.6669922h-6.8037109V3.9501953h9.8964844V.9042969l5.7568359.2382812c.4277098,0,1.09375.0478516,1.09375.5712891,0,.4755859-.5703125.6660156-1.09375.8564453v1.3798828h9.8007812v4.2353516h-4.5673828c.8085938.1435547,1.5224609.2382812,1.5224609.6669922,0,.4277344-.6191406.5712891-1.2373047.6181641-.6181641.9042969-.9511719,1.3330078-1.5703125,2.1894531h7.6123047v4.1884766h-27.784668c.0952148.4277344.1904297.8085938.237793,1.2373047-1.3793945.3808594-2.7119141.8085938-3.9487305,1.5224609-.2856445-1.9033203-.8085938-4.9970703-1.4272461-6.9482422v32.6962891h-5.0429688V10.1845703c-.1904297.2382812-.3808594.3330078-.7612305.4287109-.0952148,2.3320312-.3334961,7.5673828-1.6176758,13.1357422-1.6655273-.6669922-2.949707-1.0478516-4.7578125-1.2373047.6660156-1.9042969,2.0458984-5.9970703,2.0932617-13.8496094l4.3769531.6181641c.2856445.0478516.4760742.0478516.6665039.1435547V.9521484l4.8525391.2851562c.6186523.0478516,1.3798828.0957031,1.3798828.6191406,0,.5712891-.7138672.8564453-1.1894531.9990234v6.9482422l2.949707-1.2841797c.7138672,2.1416016.9516602,2.9501953,1.4750977,4.8066406v-1.6660156Zm16.5566406,22.3212891h10.1337891v3.8066406h-10.1337891v1.8085938h12.0371094v4.3789062h-29.5454102v-4.3789062h12.465332v-1.8085938h-10.2294922v-3.8066406h10.2294922v-1.8085938h-9.4204102v-14.515625h23.9311523v14.515625h-9.4677734v1.8085938Zm-5.0429688-10.6132812v-2.0947266h-4.2822266v2.0947266h4.2822266Zm-4.2822266,3.0927734v2.1894531h4.2822266v-2.1894531h-4.2822266Zm8.1835938-14.8007812c1.09375-1.6181641,1.3320312-1.9511719,2.2832031-3.4746094h-7.5644531c.6181641.9042969.9511719,1.4755859,1.8554688,2.9990234l-2.140625.4755859h5.5664062Zm5.4238281,11.7080078v-2.0947266h-4.2822266v2.0947266h4.2822266Zm-4.2822266,3.0927734v2.1894531h4.2822266v-2.1894531h-4.2822266Z"/>
      <path class="cls-1" d="m574.4423828,10.0419922l2.8544922,2.2841797c-.3330078.5712891-1.046875,1.8085938-1.3320312,3.1894531,6.1845703-6.3779297,10.7998047-6.5683594,11.4658203-6.5683594,3.4736328,0,6.0419922,2.8554688,6.0419922,6.7587891,0,1.8076172-.1425781,2.9023438-1.09375,9.8037109-.2851562,2.09375-.4755859,4.8544922-.4755859,6.4248047,0,.4287109,0,2.6171875,1.7128906,2.6171875.7128906,0,2.9492188-.3330078,6.2324219-4.3779297.8564453,2.9033203.9511719,3.2363281,2.2832031,6.234375-3.4257812,3.6171875-7.2792969,5.0927734-9.3251953,5.0927734-2.9970703,0-7.1835938-1.9521484-7.1835938-8.7099609,0-2.3798828,1.3320312-12.8496094,1.3320312-14.9912109,0-.6191406-.0478516-2.1894531-1.9033203-2.1894531-3.1396484,0-7.7548828,5.0927734-11.0380859,8.8525391.0478516,9.328125.0478516,12.0400391.7617188,19.2744141l-7.0410156.3330078c.1894531-1.9990234.2373047-2.9980469.3330078-11.8974609-.8095703,1.1894531-4.234375,6.5195312-5.0439453,7.5664062l-4.9003906-4.9970703c1.6660156-1.9033203,5.8046875-6.9482422,10.1337891-13.3730469l.0478516-2.1894531c-.6660156.1904297-3.9013672,1.2851562-8.0878906,1.8564453l-1.3798828-6.7587891c1.3798828-.046875,4.6630859-.1425781,9.6103516-1.5703125.0478516-2.1416016.1435547-9.328125,0-11.4697266l6.0429688.5234375c.8564453.0957031,1.3320312.2861328,1.3320312.7138672,0,.5712891-.5234375.6669922-1.046875.8095703-.1904297,1.9990234-.3330078,4.4257812-.4755859,6.8535156l.1425781-.0957031Z"/>
      <path class="cls-1" d="m615.9375,34.5517578v4.8544922h-5.5664062V5.7109375h14.9394531v31.2685547h-5.3291016v-2.4277344h-4.0439453Zm4.0439453-4.9492188V10.8037109h-4.0439453v18.7988281h4.0439453Zm33.3037109-15.7529297v5.4726562h-10.2763672v25.2246094h-6.4228516v-25.2246094h-10.0859375v-5.4726562h10.0859375V.8564453l6.8984375.4287109c.5712891.0478516,1.0947266.0478516,1.0947266.5712891,0,.6181641-.4287109.8085938-1.5703125,1.2373047v10.7558594h10.2763672Z"/>
      <path class="cls-1" d="m663.0224609,17.1806641c2.0449219-.1904297,2.5214844-.3808594,9.1816406-2.9501953,3.3779297-1.2851562,8.4208984-3.2363281,13.75-3.2363281,7.4697266,0,12.7509766,5.1396484,12.7509766,12.9453125,0,13.6113281-14.2734375,19.7978516-22.6943359,21.3212891-.9990234-1.9990234-2.4746094-3.9033203-4.1396484-5.5214844,17.9365234-3.0927734,20.3632812-11.7070312,20.3632812-15.4199219,0-4.5205078-2.9023438-7.4238281-6.9462891-7.4238281-4.9003906,0-12.9882812,3.4267578-19.2207031,8.4716797l-3.0449219-8.1865234Zm9.9433594-17.1806641c2.1884766.7138672,6.9931641,2.3320312,14.5107422,2.3320312,1.4267578,0,2.2832031-.0947266,3.2832031-.1904297-.4287109,2.2373047-.7138672,4.4267578-.8564453,6.7109375-10.2294922-.1904297-15.3681641-1.6660156-17.8417969-2.4277344l.9042969-6.4248047Z"/>
      <path class="cls-1" d="m720.1455078,19.5126953c1.046875.7617188,3.7587891,2.7607422,7.2792969,6.0917969,5.8994141-5.2822266,8.7539062-8.8046875,10.8476562-11.6601562h-30.0683594v-5.9960938h33.9697266c.3808594,0,1.8554688-.1425781,3.1875-.6660156l3.9492188,4.7587891c-.6660156.5712891-1.4755859,1.2373047-1.9033203,1.7607422-7.8974609,9.0898438-8.7539062,10.1376953-15.7001953,16.5146484,2.4736328,2.5703125,3.4257812,3.7597656,5.0429688,6.3769531-.5234375.4765625-2.9501953,2.5703125-3.4257812,2.9990234-.8564453.7607422-1.3798828,1.2841797-1.9023438,1.8085938-1.4277344-2.6660156-4.8535156-8.9951172-15.6533203-17.3710938l4.3769531-4.6171875Z"/>
      <path class="cls-1" d="m779.4296875,43.5947266h-6.8515625v-22.6064453c-8.2304688,4.9023438-12.5126953,6.5205078-14.5576172,7.28125-1.1894531-2.09375-2.9023438-4.0927734-4.8535156-5.7109375,15.1767578-4.3779297,26.6904297-14.0869141,33.0185547-22.2255859l5.7089844,4.3789062c.2861328.2382812.4287109.4277344.4287109.6660156,0,.4287109-.4755859.6191406-.8564453.6191406-.2382812,0-.6191406-.0478516-.8564453-.1425781-3.2832031,3.9023438-7.1845703,7.1855469-11.1806641,10.375v27.3652344Z"/>
      <path class="cls-1" d="m813.8017578,24.4150391c.3808594.2382812.6181641.4755859.6181641.7617188,0,.5234375-.6181641.5234375-1.2363281.4755859-3.6162109,5.7109375-5.2333984,7.7099609-9.8486328,12.421875-1.5224609-1.3808594-3.4736328-2.8554688-5.4716797-4.0458984,5.1386719-3.9501953,8.3261719-8.6142578,10.4199219-12.8496094l5.5185547,3.2363281Zm2.9970703-22.4638672l6.328125.2382812c.6181641,0,1.046875.1425781,1.046875.5712891,0,.3808594-.3808594.5234375-.8095703.7138672v8.6611328h15.9863281v5.8066406h-15.9863281v17.9902344c0,3.2832031,0,7.1865234-7.6591797,7.1865234-.8564453,0-2.2841797-.0957031-3.2353516-.1904297-.1425781-1.0478516-.3330078-2.8085938-2.0458984-6.3779297,1.2373047.1904297,3.0449219.4287109,4.3291016.4287109,2.0458984,0,2.0458984-.7138672,2.0458984-3.7128906v-15.3242188h-16.0332031v-5.8066406h16.0332031V1.9511719Zm14.84375,18.9423828c3.8066406,3.5693359,8.421875,9.6132812,9.8017578,12.1835938-1.6181641,1.2373047-3.9013672,3.3789062-4.9013672,4.3300781-2.2832031-4.1875-6.7558594-9.9462891-9.6572266-12.7539062l4.7568359-3.7597656Z"/>
      <path class="cls-1" d="m890.3603516,19.4658203v6.7578125h-41.0585938v-6.7578125h41.0585938Z"/>
      <path class="cls-1" d="m926.2412109,17.7519531c4.9951172,5.7587891,10.5615234,14.6113281,12.0839844,18.9892578-.2851562.1904297-4.0908203,3.0458984-5.4238281,4.2353516-1.09375-2.9023438-1.9980469-4.7587891-2.4736328-5.7578125-18.9355469,3.2832031-19.3632812,3.3310547-31.5908203,4.8066406-.1904297.6660156-.3808594.8564453-.7617188.8564453-.3330078,0-.5703125-.4755859-.6660156-.8564453l-1.5224609-6.1875c.8085938-.046875,4.3769531-.3330078,5.1386719-.4277344,3.1396484-5.7587891,8.7539062-19.7509766,11.2753906-31.2685547l6.8984375,1.8085938c.5234375.1425781.8564453.3330078.8564453.6660156,0,.5712891-.5234375.8095703-1.1416016.9042969-.7607422,2.0947266-3.9960938,11.2792969-4.7099609,13.0878906-1.8554688,4.8066406-3.9013672,9.5664062-6.1376953,14.1826172,4.3769531-.4277344,13.3691406-1.6181641,19.4111328-2.7128906-4.2333984-6.2822266-5.7089844-7.8525391-6.8505859-9.0419922l5.6142578-3.2841797Z"/>
      <path class="cls-1" d="m990.5253906,20.6074219v4.3789062h-47.5771484v-4.3789062h47.5771484Z"/>
      <path class="cls-1" d="m31.6865234,77.1572266c1.5698242,0,2.4262695-.3339844,3.2827148-.7138672l3.425293,2.9980469c-.8085938,1.3798828-3.3300781,6.9960938-4.9003906,10.5175781-7.421875,16.5146484-19.1259766,21.9873047-22.7890625,23.7011719-.8564453-1.0947266-1.7607422-2.1416016-5.0908203-4.6640625,16.9848633-7.0439453,21.5048828-19.7509766,23.7407227-25.9853516h-13.2265625c-3.1875,4.6640625-6.4228516,8.3759766-11.1801758,12.6591797-2.1411133-2.2363281-2.8071289-2.9501953-4.9482422-4.3779297,5.0429688-4.140625,12.3222656-11.375,15.9384766-21.4169922l5.8515625,2.8085938c.2382812.0947266.6665039.2851562.6665039.7138672,0,.4755859-.8564453.6181641-1.1420898.6181641-.5708008,1.1425781-.9516602,1.8564453-1.6176758,3.1416016h11.9897461Zm-1.855957-8.7099609c.6665039.5712891,3.0927734,2.7128906,4.5200195,4.4736328-.5234375.3330078-2.0932617,1.1904297-3.4731445,2.3798828-1.902832-2.2373047-3.0449219-3.2841797-4.3769531-4.3789062l3.3300781-2.4746094Zm7.4223633-.5234375c1.5698242,1.3798828,3.6157227,3.7597656,4.5673828,4.9023438-.2382812.1425781-2.331543,1.5703125-3.5209961,2.3320312-.3803711-.5712891-2.1884766-3.1884766-4.1865234-4.9023438l3.1401367-2.3320312Z"/>
      <path class="cls-1" d="m79.5131836,83.1533203c2.1411133,0,3.1879883-.1904297,4.0444336-.4277344l3.9960938,2.8076172c-.8085938,1.5224609-4.1865234,8.28125-4.9477539,9.6132812-5.7094727,10.1376953-11.8466797,14.4208984-21.2670898,18.1328125-1.2368164-1.9990234-2.8066406-3.7119141-4.4243164-5.2353516,7.2792969-2.3320312,16.4614258-6.3291016,21.3144531-18.9892578h-29.878418v-5.9013672h31.1625977Zm2.2363281-11.1835938v5.8056641h-27.4995117v-5.8056641h27.4995117Z"/>
      <path class="cls-1" d="m98.9750977,71.3505859c6.9936523,3.5214844,10.2290039,6.1875,12.4648438,8.1855469-.9990234,1.1425781-1.7128906,2.0947266-3.9487305,5.5214844-5.6142578-4.9023438-10.2290039-7.0917969-12.5126953-8.0908203l3.996582-5.6162109Zm-3.378418,33.4570312c11.4189453-2.4267578,25.9770508-9.9941406,35.7304688-25.8417969,1.7128906,2.7119141,2.2836914,3.6162109,4.1391602,5.5673828-3.0922852,4.7597656-12.0371094,18.2285156-34.4931641,26.3193359-.0952148.4755859-.1425781,1.046875-.809082,1.046875-.3330078,0-.6181641-.3808594-.855957-.8095703l-3.7114258-6.2822266Z"/>
      <path class="cls-1" d="m148.7006836,80.25c3.7109375,1.4277344,9.7055664,4.9501953,11.5610352,6.4726562-1.7124023,1.8085938-3.425293,4.4736328-3.9960938,5.4257812-4.472168-3.7597656-9.7060547-5.9013672-11.2285156-6.5205078l3.6635742-5.3779297Zm-.9038086,25.890625c15.3198242-5.2353516,27.4516602-15.7529297,34.0175781-25.7949219.5234375.9521484,1.5224609,2.8076172,4.1865234,5.4257812-7.184082,10.7558594-21.409668,21.4638672-33.2563477,25.8417969-.0952148.4765625-.237793,1.1425781-.8085938,1.1425781-.3330078,0-.4755859-.2382812-.7138672-.6660156l-3.425293-5.9492188Zm5.7089844-36.5029297c5.0908203,1.9033203,8.4213867,3.4736328,12.2749023,5.8056641-.9516602,1.046875-3.0922852,4.140625-3.8535156,5.2832031-3.6635742-2.6181641-7.8027344-4.6171875-11.9418945-6.1396484l3.5205078-4.9492188Z"/>
      <path class="cls-1" d="m227.8334961,73.5400391c.855957,0,1.8554688-.0957031,2.6640625-.4287109l4.472168,4.140625c-.5708008.6660156-.7612305.9521484-1.7128906,2.3798828-5.9467773,8.6142578-10.9902344,13.2783203-13.4165039,15.5146484-1.0463867-1.3320312-2.2836914-2.7597656-4.6625977-4.4736328,4.8530273-4.0449219,7.0888672-6.234375,10.2768555-10.9931641h-32.7807617v-6.1396484h35.159668Zm-12.3701172,8.7568359c.3330078,0,.7612305.0947266.7612305.4755859,0,.5234375-.5708008.8574219-.7612305.9521484-.1904297,4.9492188-.9516602,10.1367188-2.4262695,13.9921875-1.7128906,4.3779297-5.7568359,10.4697266-12.1796875,14.0869141-2.1411133-1.9033203-3.1879883-2.7128906-5.6142578-4.2353516,7.0888672-3.9980469,14.2255859-9.3759766,13.3212891-25.7001953l6.8989258.4287109Z"/>
      <path class="cls-1" d="m263.5522461,79.9648438v16.2285156h-12.2749023c-.2856445,5.9970703-1.1894531,12.6601562-3.8061523,17.3242188-1.0942383-.5712891-3.1401367-1.5712891-5.8041992-1.9042969,3.8061523-5.5683594,3.9013672-13.0400391,3.9013672-16.9902344v-14.6582031h17.9838867Zm1.0463867-8.4716797v4.9970703h-21.4091797v-4.9970703h21.4091797Zm-13.3212891,13.5644531v6.1386719h6.6606445v-6.1386719h-6.6606445Zm30.2587891,27.9833984h-5.7089844v-23.9384766h-4.2822266c0,4.4736328-.0473633,15.8955078-10.0859375,24.6054688-1.7128906-1.7138672-2.1411133-1.9042969-4.9956055-3.4267578,3.0449219-2.046875,5.4238281-4.9970703,7.1362305-8.28125,1.3798828-2.7128906,2.3789062-5.8535156,2.3789062-11.8027344v-18.1806641l4.234375.3330078c1.8081055.1435547,8.0405273-1.3798828,11.9892578-3.3310547l3.7587891,4.9492188c.1425781.1904297.237793.3808594.237793.5712891,0,.2861328-.1904297.5234375-.5708008.5234375-.3808594,0-.809082-.1904297-1.284668-.4277344-4.234375,1.5703125-9.2773438,2.4746094-12.7983398,2.9033203v6.1865234h14.7016602v5.3779297h-4.7104492v23.9384766Z"/>
      <path class="cls-1" d="m296.96875,80.6308594c1.8076172.9042969,6.7558594,4.0458984,8.0878906,5.2353516-2.4736328,3.3310547-2.7592773,3.7119141-3.2827148,4.5693359-1.6650391-1.5712891-6.1850586-4.7119141-7.8027344-5.5683594l2.9975586-4.2363281Zm-2.949707,28.2226562c3.8535156-4.2363281,8.1831055-12.3740234,9.6103516-16.0869141.6660156.7148438,2.0458984,2.0947266,4.234375,3.09375-.8085938,2.2841797-3.2353516,7.6152344-7.8979492,15.3251953.0478516.2851562.0952148.4277344.0952148.6660156s0,.7617188-.6181641.7617188c-.2856445,0-.4760742-.1425781-.8564453-.4287109l-4.5673828-3.3310547Zm6.2797852-39.7871094c1.2373047.8085938,6.328125,4.2832031,7.8027344,5.8056641-.5708008.7138672-2.9970703,3.9033203-3.5205078,4.5214844-1.0942383-1.1416016-2.8071289-2.8554688-7.8500977-5.9960938l3.5678711-4.3310547Zm26.2626953,20.5595703c.8085938,3.5693359,2.9975586,12.7070312,13.1787109,19.3701172-1.902832,1.046875-3.5205078,2.9980469-4.472168,4.2353516-.6186523-.3808594-10.8476562-6.9482422-14.5585938-23.6054688h-2.949707c-.4282227,11.1367188-4.7099609,19.8935547-8.6113281,23.7480469-.3808594-.1894531-.6186523-.2851562-2.8544922-1.4277344-.9042969-.4755859-2.4741211-.9042969-3.0927734-1.046875,6.0424805-5.9013672,8.706543-14.0390625,8.706543-26.1279297v-13.1826172h25.3583984v18.0371094h-10.7045898Zm-8.5161133-5.1396484h13.3691406v-7.8056641h-13.3691406v7.8056641Z"/>
      <path class="cls-1" d="m363.621582,91.4345703c0,2.6650391-2.1411133,4.8066406-4.8051758,4.8066406-2.6645508,0-4.8051758-2.1416016-4.8051758-4.8066406s2.1884766-4.8066406,4.8051758-4.8066406,4.8051758,2.1416016,4.8051758,4.8066406Z"/>
      <path class="cls-1" d="m394.7631836,92.1005859h7.0893555v4.8066406h-6.328125c.5712891.7138672,3.7587891,4.2832031,6.328125,5.9492188-1.9985352,1.2851562-2.5693359,1.8085938-3.8061523,3.7119141-1.4277344-1.3798828-2.1411133-2.3789062-3.2832031-4.0927734v10.4707031h-5.3759766v-10.4228516c-1.284668,2.5224609-2.7592773,5.0449219-5.2333984,7.7099609-1.3320312-1.1894531-2.4741211-1.9033203-4.7578125-2.9033203,3.996582-3.3789062,6.5654297-7.0908203,8.3735352-10.4228516h-6.6606445v-4.8066406h8.2783203v-3.4736328h-8.8017578v-4.6640625h5.3759766c-.7612305-2.7128906-1.1889648-3.6650391-1.5224609-4.4267578l2.4741211-.8564453h-5.0429688v-4.5683594h7.659668v-4.6640625l5.7568359.4277344c.8564453.0478516,1.046875.2382812,1.046875.5712891,0,.2851562-.4282227.5712891-1.046875.9042969v2.7607422h6.8510742v4.5683594h-2.9023438c1.1420898.2382812,1.5703125.3330078,1.5703125.7617188,0,.4755859-.3330078.5712891-1.1894531.8085938-.5234375,1.4755859-1.2368164,2.9033203-1.6650391,3.7128906h5.1855469v4.6640625h-6.8984375c-.0952148.5703125-1.046875.8085938-1.4750977.9511719v2.5224609Zm-5.4233398-13.4208984c1.0463867,2.4746094,1.3320312,3.6171875,1.5224609,4.5214844l-2.6645508.7617188h4.6147461c1.4277344-2.1894531,2.1411133-4.7119141,2.2836914-5.2832031h-5.7563477Zm14.9389648-5.9013672l3.1401367.3330078c3.1401367,0,9.5629883-1.5703125,13.2260742-3.09375l3.2353516,4.2363281c.0952148.1425781.237793.3330078.237793.6181641,0,.4287109-.2851562.6669922-.7133789.6669922-.3330078,0-.6186523-.1435547-1.1894531-.4765625-3.996582,1.2851562-7.4697266,2.046875-12.2275391,2.4277344v6.4726562h13.6069336v5.3300781h-4.2817383v23.6533203h-5.6616211v-23.6533203h-3.6635742c0,3.5214844,0,15.3720703-6.9458008,24.0341797-1.1420898-.7617188-2.9023438-1.7607422-5.4716797-2.4277344,6.0898438-6.6152344,6.7084961-14.7060547,6.7084961-21.6064453v-16.5146484Z"/>
      <path class="cls-1" d="m463.7290039,75.6816406c.9516602,0,2.3789062-.0957031,3.2827148-.3330078l4.7578125,3.9501953c-.7612305,1.046875-.9516602,1.4746094-2.7597656,5.5683594-5.3286133,12.1835938-9.8959961,19.3222656-25.1679688,27.3173828-1.2373047-1.7128906-2.7597656-3.1884766-4.9482422-4.9492188,6.565918-2.9990234,18.2695312-8.3291016,24.1694336-25.6044922h-29.9262695v-5.9492188h30.5922852Zm12.8457031-3.2841797c0,2.4277344-1.9985352,4.3789062-4.4248047,4.3789062s-4.4243164-1.9511719-4.4243164-4.3789062c0-2.4746094,1.9980469-4.4257812,4.4243164-4.4257812s4.4248047,1.9990234,4.4248047,4.4257812Zm-6.6132812,0c0,1.1904297.9516602,2.1894531,2.1884766,2.1894531,1.2373047,0,2.1884766-.9990234,2.1884766-2.1894531,0-1.2373047-.9990234-2.2363281-2.1884766-2.2363281s-2.1884766.9990234-2.1884766,2.2363281Z"/>
      <path class="cls-1" d="m492.0073242,106.6162109v1.9990234h-6.7558594v-32.9814453h35.4448242v32.9814453h-6.6132812v-1.9990234h-22.0756836Zm22.0756836-5.9492188v-18.9892578h-22.0756836v18.9892578h22.0756836Z"/>
      <path class="cls-1" d="m535.9326172,80.25c3.7109375,1.4277344,9.7060547,4.9501953,11.5615234,6.4726562-1.7128906,1.8085938-3.4257812,4.4736328-3.9970703,5.4257812-4.4716797-3.7597656-9.7050781-5.9013672-11.2275391-6.5205078l3.6630859-5.3779297Zm-.9042969,25.890625c15.3203125-5.2353516,27.4521484-15.7529297,34.0175781-25.7949219.5234375.9521484,1.5224609,2.8076172,4.1875,5.4257812-7.1845703,10.7558594-21.4101562,21.4638672-33.2568359,25.8417969-.0947266.4765625-.2373047,1.1425781-.8085938,1.1425781-.3330078,0-.4755859-.2382812-.7138672-.6660156l-3.4257812-5.9492188Zm5.7099609-36.5029297c5.0908203,1.9033203,8.4208984,3.4736328,12.2744141,5.8056641-.9511719,1.046875-3.0927734,4.140625-3.8535156,5.2832031-3.6630859-2.6181641-7.8027344-4.6171875-11.9414062-6.1396484l3.5205078-4.9492188Zm21.6474609,2.3789062c1.4746094,1.046875,4.0917969,3.2363281,5.3759766,4.5693359-.8564453.8085938-2.2363281,2.1894531-3.0927734,3.0458984-.5234375-.5234375-2.8544922-2.9511719-5.328125-4.8066406l3.0449219-2.8085938Zm4.4716797-3.6171875c1.5224609,1.0947266,4.0439453,3.3320312,5.1386719,4.5693359-.4755859.3330078-1.0947266.7617188-2.9023438,2.6650391-1.7128906-1.7607422-3.3300781-3.2841797-5.1855469-4.6640625l2.9492188-2.5703125Z"/>
      <path class="cls-1" d="m601.0927734,103.3798828h13.5117188v5.4257812h-32.4003906v-5.4257812h13.0361328v-16.3242188h-9.6103516v-5.6152344h25.3583984v5.6152344h-9.8955078v16.3242188Z"/>
      <path class="cls-1" d="m655.2421875,77.1572266c1.5703125,0,2.4267578-.3339844,3.2832031-.7138672l3.4257812,2.9980469c-.8095703,1.3798828-3.3310547,6.9960938-4.9003906,10.5175781-7.4228516,16.5146484-19.1259766,21.9873047-22.7900391,23.7011719-.8564453-1.0947266-1.7597656-2.1416016-5.0908203-4.6640625,16.9853516-7.0439453,21.5048828-19.7509766,23.7412109-25.9853516h-13.2265625c-3.1875,4.6640625-6.4228516,8.3759766-11.1806641,12.6591797-2.140625-2.2363281-2.8066406-2.9501953-4.9472656-4.3779297,5.0429688-4.140625,12.3222656-11.375,15.9375-21.4169922l5.8525391,2.8085938c.2373047.0947266.6660156.2851562.6660156.7138672,0,.4755859-.8564453.6181641-1.1416016.6181641-.5712891,1.1425781-.9521484,1.8564453-1.6181641,3.1416016h11.9892578Z"/>
      <path class="cls-1" d="m686.9736328,82.8681641c6.6611328,3.3310547,13.1787109,7.5673828,17.1757812,11.5166016-1.8564453,1.9521484-2.5224609,2.7607422-4.5683594,5.1884766-5.8037109-5.5683594-11.703125-8.9003906-15.0341797-10.6611328v23.2246094h-6.7558594v-41.7382812l6.7558594.3808594c.4765625.0478516.9042969.0957031.9042969.5234375,0,.5234375-.6181641.6669922-.9042969.7138672v14.2783203l2.4267578-3.4267578Z"/>
      <path class="cls-1" d="m736.7460938,95.9082031h9.7060547v5.2822266h-9.7060547v5.5214844h17.5087891v5.2822266h-41.2490234v-5.2822266h17.5556641v-5.5214844h-9.8486328v-5.2822266h9.8486328v-4.8066406h-10.3720703v-2.7128906c-1.9980469,1.4277344-3.7109375,2.5224609-5.2333984,3.2841797-.7607422-1.3330078-2.9023438-3.2841797-4.5195312-4.4736328,2.9023438-1.2382812,14.2255859-6.6630859,20.2197266-18.1328125l5.8994141.8085938c.2861328.0478516,1.2851562.1425781,1.2851562.8095703,0,.5712891-.5712891.7617188-1.1416016.9511719.6660156,1,7.3261719,9.328125,19.6494141,14.46875-.9521484.9511719-3.2353516,3.5214844-3.8544922,4.8544922-1.6171875-.6669922-3.2353516-1.4755859-5.5185547-2.8554688v2.9980469h-10.2294922v4.8066406Zm6.5664062-10.2324219c-5.9951172-4.4257812-8.9921875-7.9482422-10.2294922-9.4707031-2.6171875,3.6171875-5.8515625,6.7099609-9.3251953,9.4707031h19.5546875Z"/>
      <path class="cls-1" d="m781.5820312,109.5195312h-7.1367188v-25.3193359h-7.9931641v-5.234375c3.9960938-.1904297,7.8027344-.6669922,9.4677734-6.9492188h5.6621094v37.5029297Z"/>
      <path class="cls-1" d="m827.6660156,90.7685547c0,6.7099609-1.7607422,19.7978516-15.7958984,19.7978516s-15.7949219-13.0400391-15.7949219-19.7978516c0-6.4726562,1.6171875-19.7988281,15.7949219-19.7988281,14.0351562,0,15.7958984,13.0878906,15.7958984,19.7988281Zm-24.2646484,0c0,2.0458984,0,13.8017578,8.46875,13.8017578,8.4208984,0,8.4208984-11.7558594,8.4208984-13.8017578,0-2.046875,0-13.8017578-8.4208984-13.8017578s-8.46875,11.5644531-8.46875,13.8017578Z"/>
      <path class="cls-1" d="m854.2958984,97.9072266v-16.2294922h8.9443359v-2.7119141h-10.1806641v4.9492188h-5.234375v.3808594c1.8554688,4.5683594,3.7109375,7.6621094,6.1855469,10.9931641-.7617188.5712891-2.8544922,2.2851562-4.4726562,4.09375-.4277344-1-.7128906-1.7138672-1.7128906-4.4736328v18.1318359h-5.5185547v-15.1337891c-1.2373047,3.6640625-1.9033203,4.9492188-2.6640625,6.5195312-.9042969-.8564453-2.8544922-2.3789062-4.7099609-3.3789062,1.8554688-2.9501953,4.5673828-7.6142578,7.1357422-17.1328125h-6.0898438v-5.0927734h6.328125v-9.1845703l5.5185547.2851562c.4287109,0,1.046875.0947266,1.046875.6660156,0,.5234375-.4755859.7138672-1.046875,1v7.2333984h4.8535156v-4.6162109h10.5615234v-4.7119141l5.4716797.3339844c.3808594,0,.9511719.0947266.9511719.5703125,0,.5234375-.8085938.9042969-1.1416016,1.0478516v2.7597656h10.8955078v4.7597656h-10.8955078v2.7119141h9.4677734v16.2294922h-7.7070312c4.4716797,5.8056641,9.2773438,8.6142578,10.8945312,9.5654297-.9990234.8095703-2.140625,1.7617188-3.8535156,4.4267578-1.5703125-1.2373047-5.1386719-3.9980469-8.6591797-8.9951172v10.1845703h-5.4238281v-10.2324219c-2.1884766,2.6181641-5.2333984,6.1396484-10.0859375,9.2802734-1.5224609-1.9980469-3.4736328-3.5214844-4.1396484-4.0927734,4.8056641-2.4746094,8.9921875-5.9960938,12.4658203-10.1367188h-7.1845703Zm9.0869141-9.8994141v-2.5703125h-4.0439453v2.5703125h4.0439453Zm-4.0439453,3.3789062v2.6650391h4.0439453v-2.6650391h-4.0439453Zm13.4169922-3.3789062v-2.5703125h-4.234375v2.5703125h4.234375Zm-4.234375,3.3789062v2.6650391h4.234375v-2.6650391h-4.234375Z"/>
      <path class="cls-1" d="m910.2636719,71.6835938c.5234375.1425781.9042969.2861328.9042969.6660156,0,.3339844-.2382812.7138672-1.2373047.8095703-.4277344,2.046875-.9033203,4.4257812-1.3789062,6.3300781,5.4707031-.3339844,11.4179688,1.046875,11.4179688,13.0878906,0,5.1875-1.3320312,9.9462891-2.9501953,13.1347656-2.4257812,4.6640625-5.328125,5.9013672-9.1347656,5.9013672-2.0449219,0-3.3779297-.3330078-4.3291016-.5234375.0947266-3.2363281-.0478516-4.8544922-.5712891-6.9482422,1.2373047.5234375,2.4267578.9990234,4.3300781.9990234,2.0458984,0,3.4726562-.1425781,4.9951172-3.7597656,1.5224609-3.6162109,1.5703125-8.2802734,1.5703125-9.2802734,0-1.9990234,0-6.8535156-4.5673828-6.8535156-.5712891,0-.7138672.0478516-2.3310547.2382812-1.8554688,6.4726562-4.5673828,15.8007812-12.0371094,25.7001953-1.7607422-1.1904297-4.1865234-2.4746094-5.9951172-3.09375,5.5664062-6.5673828,9.0400391-13.0878906,11.4667969-21.3691406-2.2841797.5234375-3.6640625.8564453-8.2314453,2.5703125l-2.0458984-6.6152344c1.9033203-.2861328,10.1337891-2.046875,11.8466797-2.2841797,1.046875-5.1875,1.3320312-8.9472656,1.4755859-10.8037109l6.8027344,2.09375Zm11.7998047,5.4257812c3.3300781,3.140625,9.8955078,10.2802734,9.8955078,15.3242188,0,3.7597656-4.0917969,5.140625-7.2792969,6.1875-.8085938-1.8085938-2.2832031-4.1884766-3.0927734-5.3779297,2.6171875-.7138672,3.4736328-.9521484,3.4736328-2.4277344,0-2.4746094-3.9492188-7.6621094-7.4697266-11.1357422l4.4726562-2.5703125Zm2.8066406-5.5683594c2.4736328,2.5224609,3.5683594,4.0449219,4.0917969,4.8066406-1.3798828.9042969-2.09375,1.4755859-3.0449219,2.2841797-1.7128906-2.3320312-2.8544922-3.6640625-4.1396484-4.9492188l3.0927734-2.1416016Zm4.5673828-2.9033203c.6181641.6191406,2.6171875,2.5224609,4.1865234,4.9023438-1.3320312.9042969-1.5693359,1.0947266-3.4248047,2.4267578-1.3798828-2.4267578-2.4746094-3.7597656-3.9492188-5.2353516l3.1875-2.09375Z"/>
      <path class="cls-1" d="m940.1699219,82.8681641v-5.2353516h4.5195312c.6181641-3.9023438.8085938-5.1396484.9990234-8.0429688l5.4238281.8085938c.3330078.0478516.7138672.1904297.7138672.5234375,0,.4287109-.3330078.6669922-.9990234.7617188-.1904297,1.046875-.8564453,5.4257812-.9521484,5.9492188h7.4697266c-.0947266,6.8056641-.7138672,13.4208984-2.9970703,20.1318359,3.2832031,3.8544922,4.3769531,5.7578125,5.0429688,6.9003906-.6181641.3330078-3.0449219,1.8085938-4.7099609,3.2841797-.7617188-1.7138672-1.4746094-2.8554688-2.7597656-4.6162109-2.7119141,5.234375-5.9941406,8.4238281-7.3261719,9.6611328-1.3330078-1.2851562-3.2832031-2.3320312-4.9003906-2.9511719,2.7587891-2.6171875,6.2324219-6.1396484,8.6582031-11.0410156-.9033203-.9521484-2.140625-2.1416016-3.0449219-2.9990234-.1894531.4287109-.5234375,1.3330078-.7607422,1.8085938-1.9511719-1.1416016-4.4248047-1.5703125-5.0429688-1.6650391.7607422-1.7617188,2.8066406-6.5205078,4.1865234-13.2783203h-3.5205078Zm8.8017578,0c-.2861328,1.6650391-.8085938,4.2353516-1.9511719,7.9003906.6660156.5234375,1.7128906,1.3798828,3.3779297,2.9023438,1.3320312-4.5205078,1.4755859-8.8515625,1.5703125-10.8027344h-2.9970703Zm28.2128906-7.2822266c1.8076172,2.7607422,5.28125,8.8046875,7.0888672,14.3251953-1.3320312.4287109-3.5683594,1.5712891-4.9482422,2.5703125-.3798828-1.046875-.7607422-1.9990234-1.4746094-3.7119141-6.8037109.6660156-7.8974609.7617188-17.8886719,1.5224609-.3330078.7138672-.6191406,1.2373047-.9521484,1.2373047-.4755859,0-.5703125-.5703125-.6660156-1.1894531l-.6660156-5.4257812c.8564453-.046875,2.7597656-.1425781,4.0917969-.1904297,1.2841797-3.2363281,3.3300781-9.9941406,4.1865234-15.2294922l6.0898438,1.1425781c.4765625.0947266.8095703.2851562.8095703.6191406,0,.5234375-.5712891.6660156-1.3330078.8085938-2.3789062,7.8046875-2.7119141,8.9472656-4.0439453,12.3740234,2.6650391-.1425781,4.9003906-.3330078,8.1835938-.6191406-1.4746094-2.9501953-2.5214844-4.6640625-3.2832031-5.9013672l4.8056641-2.3320312Zm-11.3710938,35.4560547v1.9990234h-5.5664062v-20.1787109h21.0761719v20.1787109h-5.6611328v-1.9990234h-9.8486328Zm9.8486328-5.234375v-7.7099609h-9.8486328v7.7099609h9.8486328Z"/>
      <path class="cls-1" d="m1020.5771484,79.8222656v-10.1845703l5.4716797.3330078c.4755859.046875,1.1894531.0947266,1.1894531.6181641,0,.6191406-.6191406.9042969-1.1894531,1.0947266v8.1386719h8.2304688c0,9.9462891,0,24.7001953-2.9492188,30.0302734-1.3798828,2.5224609-3.9492188,3.1884766-8.1357422,3.09375-.6191406-2.5703125-1.1425781-3.8076172-2.7119141-6.0439453,2.3789062.5703125,3.0449219.7607422,4.1865234.7607422.9042969,0,1.9501953-.0947266,2.6171875-3.7597656,1.6650391-8.8046875,1.4746094-15.3720703,1.4267578-18.2275391h-2.9970703c-.8564453,13.8496094-5.4716797,22.7011719-9.8486328,28.0322266-1.4277344-1.0947266-3.0449219-1.9511719-4.6621094-2.7607422.8564453-1.1425781,1.2841797-1.7607422,1.8554688-2.6171875-8.1835938,1.1894531-17.5087891,2.1884766-18.3652344,2.1884766-.3330078.7138672-.5703125,1.0947266-1.09375,1.0947266s-.6191406-.5234375-.7138672-.9990234l-.7138672-4.7119141c1.6181641.0478516,4.0439453-.1425781,9.4199219-.5234375v-2.6650391h-8.4208984v-3.7597656h8.4208984v-1.8564453h-8.2304688v-14.0869141h8.2304688v-1.6660156h-9.6572266v-4.0927734h9.6572266v-1.5703125c-2.7119141.2382812-4.1865234.3330078-6.7558594.3330078-.3330078-1.8564453-1.6171875-3.7597656-1.9023438-4.1884766.8564453.0478516,1.5224609.0957031,2.7587891.0957031,8.9443359,0,14.3212891-1.6660156,15.7958984-2.3320312l2.5214844,3.4267578c.1425781.1904297.2851562.4755859.2851562.7138672,0,.3330078-.1904297.5234375-.5234375.5234375s-.7607422-.2861328-1.09375-.5234375c-2.6171875.6660156-5.7568359,1.1894531-6.0419922,1.1894531v2.3320312h10.1806641v2.5703125h3.7587891Zm-18.9833984,8.7089844v-2.09375h-3.4248047v2.09375h3.4248047Zm-3.4248047,2.9511719v2.1416016h3.4248047v-2.1416016h-3.4248047Zm17.9833984-10.1376953h-9.5146484v1.6660156h8.3730469v14.0869141h-8.3730469v1.8564453h8.1347656v3.7597656h-8.1347656v2.1894531c4.6621094-.4765625,5.7568359-.5712891,7.9921875-.9521484-.046875.7617188-.0947266,1.2851562-.046875,2.046875,1.3320312-2.3320312,5.1376953-8.9003906,5.8037109-20.3222656h-4.234375v-4.3310547Zm-5.9462891,7.1865234v-2.09375h-3.5683594v2.09375h3.5683594Zm-3.5683594,2.9511719v2.1416016h3.5683594v-2.1416016h-3.5683594Z"/>
      <path class="cls-1" d="m1053.1611328,102.0478516v7.4716797h-6.0898438v-7.4716797h6.0898438Zm-.1425781-30.03125v11.6132812l-1.2373047,14.0390625h-3.3300781l-1.2373047-14.0390625v-11.6132812h5.8046875Z"/>
    </g>
  </g>
</svg>