<?xml version="1.0" encoding="UTF-8"?>
<svg id="_レイヤー_2" data-name="レイヤー 2" xmlns="http://www.w3.org/2000/svg" viewBox="0 0 1096.1586837 150.5451628">
  <defs>
    <style>
      .cls-1 {
        fill: #00417c;
      }

      .cls-1, .cls-2 {
        stroke-width: 0px;
      }

      .cls-2 {
        fill: #fff;
      }
    </style>
  </defs>
  <g id="_レイヤー_1-2" data-name="レイヤー 1">
    <g>
      <g>
        <path class="cls-1" d="m42.8540039,110.4375c1.96875,0,8.0258789-.6074219,14.3857422-1.3681641,2.2714844-.3046875,12.1142578-1.8251953,14.0830078-1.8251953,5.1484375,0,9.8427734,3.8017578,9.8427734,7.1474609,0,8.2119141-25.7426758,8.9726562-34.2226562,8.9726562-20.2915039,0-46.9428711-4.4101562-46.9428711-27.0683594,0-4.8662109,1.6655273-6.9960938,2.1201172-6.9960938.6054688,0,.6054688.3046875,1.6655273,3.8017578,3.4829102,12.0136719,18.1713867,17.0322266,29.831543,17.0322266.9086914,0,7.7226562.3037109,9.2368164.3037109ZM19.5341797,27.2558594c11.5087891,0,22.4116211-2.28125,24.3798828-2.7373047,5.4516602-1.2158203,6.6630859-1.2158203,7.5717656-1.2158203,7.1167109,0,14.0825313,7.1464844,14.0825313,10.3398438,0,2.28125-1.0600586,2.7373047-11.2055664,5.0185547-7.5712891,1.8251953-12.7202148,5.9306641-17.8686523,10.0371094-1.2114258,1.0644531-1.362793,1.2158203-1.9682617,1.2158203-.3032227,0-.4545898-.3037109-.4545898-.4560547,0-1.2167969,6.6630859-9.2763672,6.6630859-11.1005859,0-1.0644531-.4545898-1.0644531-5.1489258-1.2167969-17.7167969-.3037109-28.6196289-8.2119141-28.6196289-10.3408203,0-.4560547.7568359-.6083984,1.0600586-.6083984.4541016,0,.9082031.1523438,4.8457031.7607422,2.5742188.3037109,5.1484375.3037109,6.6625977.3037109Zm64.2055664,19.1611328c4.3916016,2.8886719,6.5117188,6.3867188,6.5117188,8.6679688,0,2.8886719-1.8173828,5.9306641-4.2402344,5.9306641-1.96875,0-3.0283203-.6083984-8.1772461-6.2353516-3.0283203-3.3447266-4.2397461-4.1054688-11.0541992-8.3632812-.7568359-.6083984-2.4228516-1.6728516-2.4228516-2.28125,0-.4560547,1.2114258-1.3681641,2.5742188-1.3681641,6.3603516,0,11.2060547,0,16.8085938,3.6494141Zm22.4116211-3.6494141c0,1.671875-1.2114258,4.5615234-3.9375,4.5615234-3.1796875,0-4.9970703-2.28125-7.8740234-5.6259766-1.96875-2.4335938-8.1772461-6.6914062-13.1743164-8.5166016-1.6655273-.6083984-1.96875-1.2158203-1.96875-1.6728516,0-1.0644531,3.0288086-1.8242188,5.6030273-1.8242188,13.4770508,0,21.3515625,6.9951172,21.3515625,13.078125Z"/>
        <path class="cls-1" d="m153.6118164,117.28125c0,1.5205078-1.2114258,1.9765625-4.8457031,3.4970703-.605957.3046875-12.1142578,10.796875-14.6884766,12.6220703-3.9375,3.0410156-10.7514648,7.7558594-11.9628906,7.7558594-.605957,0,4.6943359-6.9951172,4.9970703-7.4521484,7.4199219-10.0361328,10.7514648-16.7275391,11.9628906-19.6162109.3027344-.9130859,1.5141602-5.1708984,2.2714844-5.6269531.9082031-.4560547,12.265625,6.2353516,12.265625,8.8203125Zm-6.3598633-14.7509766c-1.8173828,0-3.6342773.3037109-4.2402344,2.4335938-.9086914,3.1933594-3.4829102,5.7783203-6.9658203,5.7783203-3.7856445,0-3.7856445-3.1933594-3.7856445-7.4511719,0-6.9951172.4545898-41.3632812.4545898-49.1191406,0-14.75-.1518555-23.5703125-.7573242-32.2382812-.1513672-1.3681641-1.5141602-8.2119141-1.5141602-9.7324219,0-.4560547,0-1.8251953,1.2114258-1.8251953,2.5742188,0,4.5429688,1.0644531,7.2685547,2.5859375,1.8168945,1.0644531,4.2397461,1.0644531,6.0571289,1.0644531h11.9628906c1.362793,0,2.8769531,0,4.2397461-.9130859.4541016-.3037109,2.7255859-2.5849609,3.4829102-2.5849609.9086914,0,10.7514648,6.84375,10.7514648,9.1240234,0,.9130859-.9086914,1.6728516-1.362793,1.9775391-.4545898.3037109-3.1801758,2.4326172-3.331543,2.5849609-.9086914,1.3681641-1.2114258,24.1787109-1.2114258,27.6767578,0,7.1464844,1.0600586,42.5791016,1.0600586,50.6386719,0,2.4335938,0,7.1474609-7.4199219,7.1474609-2.4228516,0-2.5742188-.7607422-3.6342773-4.7138672-.605957-2.4335938-3.4829102-2.4335938-4.5429688-2.4335938h-7.7226562Zm-.1518555-56.4179688c-4.5424805,0-4.5424805,1.9775391-4.5424805,8.9726562,0,14.75,0,14.9023438,4.5424805,14.9023438h8.9345703c4.5429688,0,4.5429688-.1523438,4.5429688-15.0546875,0-6.8427734,0-8.8203125-4.5429688-8.8203125h-8.9345703Zm.1518555-28.1328125c-4.5429688,0-4.5429688.3046875-4.5429688,15.0556641,0,6.8427734,0,8.9716797,4.5429688,8.9716797h8.6313477c4.5429688,0,4.5429688-.1523438,4.5429688-15.0546875,0-6.84375,0-8.9726562-4.5429688-8.9726562h-8.6313477Zm.1513672,56.1142578c-4.6943359,0-4.6943359,2.5849609-4.6943359,6.5390625,0,16.1191406,0,17.7919922,4.8457031,17.7919922h7.7226562c4.8457031,0,4.8457031-1.3691406,4.8457031-15.9677734,0-6.3867188,0-8.3632812-4.5424805-8.3632812h-8.1772461Zm30.1342773,59.3066406c0,5.7783203-4.9970703,6.5390625-5.4516602,6.5390625-3.1801758,0-3.4829102-1.0644531-7.7226562-14.7509766-1.2114258-4.1054688-3.7856445-8.515625-7.1171875-14.2939453-.1513672-.1523438-.7573242-1.2167969-.4545898-1.5214844,1.2119141-1.3681641,20.7460938,11.4052734,20.7460938,24.0273438Zm46.6396484-74.9697266c-3.4829102,0-5.1484375.9121094-5.1484375,4.5615234,0,8.2119141,0,9.1240234,4.2397461,9.1240234h7.2685547c1.2114258,0,3.1801758,0,4.6943359-1.2158203.7573242-.4570312,3.4829102-3.1943359,4.3916016-3.1943359,1.8168945,0,11.2055664,7.2998047,11.2055664,9.2763672,0,1.0644531-1.2114258,1.2167969-2.7255859,1.5205078-2.5742188.4570312-2.5742188,1.0644531-2.5742188,7.1474609,0,1.9775391-.1513672,11.4052734-.1513672,13.5341797,0,8.6679688,0,9.5800781,1.8168945,9.5800781.9086914,0,1.6655273-.6074219,2.4228516-2.2802734.605957-1.0644531,1.96875-3.3457031,3.6342773-3.3457031,1.8173828,0,9.0859375,6.9951172,9.0859375,8.8203125,0,2.1289062-3.331543,2.1289062-7.5717773,2.1289062h-4.3911133c-2.2714844,0-3.9375.4560547-4.3916016,2.7373047v10.796875c0,4.4091797-.6054688,8.3632812-4.2397461,11.4052734-2.574707,2.1289062-8.0258789,3.3447266-10.6000977,3.3447266-.605957,0-1.6660156,0-2.2714844-.6083984-.6054688-.4560547-2.5742188-3.6494141-3.0283203-4.4091797-.9086914-1.2167969-6.8144531-7.1474609-6.8144531-7.4521484,0-.4560547.9086914-.4560547,1.5141602-.4560547,1.0600586,0,6.9658203.4560547,8.3286133.4560547,7.4199219,0,7.4199219-.9121094,7.4199219-10.3398438,0-3.1943359,0-5.4746094-4.5429688-5.4746094h-31.9511719c-4.3916016,0-4.3916016,2.4326172-4.3916016,5.9306641,0,2.4326172.4545898,14.4462891.4545898,15.3583984,0,1.9775391,0,3.9541016-1.362793,4.8662109-.605957.6083984-3.0288086,2.4335938-6.0571289,2.4335938-2.8774414,0-3.4829102-1.9775391-3.4829102-3.8017578,0-2.8896484.6054688-17.0322266.6054688-20.2255859,0-4.2578125-3.0283203-4.2578125-4.0883789-4.2578125-.9086914,0-4.9970703.4560547-5.6030273.4560547-.4541016,0-.7568359-.4560547-1.362793-1.0644531l-2.8769531-3.4970703q-.605957-.7607422-.605957-.9130859c0-.4560547.3027344-.4560547.4545898-.4560547.3027344,0,8.1767578.7607422,9.8427734.7607422,4.5424805,0,4.5424805-3.0419922,4.5424805-5.0185547,0-8.515625-.1513672-23.2666016-1.5141602-30.5654297-.1513672-.7607422-1.362793-4.8662109-1.362793-5.7792969,0-.3037109,0-1.0644531.605957-1.0644531,1.5141602,0,4.2397461,1.2167969,9.8427734,3.4980469,3.0283203,1.3681641,5.4511719,1.3681641,6.965332,1.3681641h5.6030273c1.96875,0,3.331543-.4560547,3.331543-3.953125,0-7.6035156,0-9.7324219-4.5429688-9.7324219h-5.7543945c-3.6342773,0-13.7797852,0-19.0795898.4560547-.4545898,0-2.7260742.3037109-3.1801758.3037109-.605957,0-.9086914-.3037109-1.362793-.9121094l-2.8769531-3.4980469q-.7573242-.7597656-.7573242-1.0644531c0-.3037109.3027344-.3037109.6054688-.3037109,2.574707,0,15.2944336.9121094,18.1713867.9121094,4.0888672,0,4.5429688-1.3681641,4.5429688-9.4277344,0-3.0419922-1.0600586-4.8662109-4.0883789-4.8662109-1.362793,0-8.1772461.6074219-9.0859375.6074219-.6054688,0-.9086914-.3037109-1.362793-1.0644531l-3.0283203-3.4970703q-.605957-.7607422-.605957-.9121094c0-.3046875.3027344-.4570312.4545898-.4570312,1.6655273,0,11.5083008.9130859,13.628418.9130859,3.9370117,0,3.9370117-3.0419922,3.9370117-5.1708984,0-5.6259766,0-8.0595703-3.9370117-8.0595703-1.362793,0-8.3286133.6083984-9.3886719.6083984-.4541016,0-.7573242-.3037109-1.362793-1.0644531l-2.8769531-3.4970703q-.605957-.7607422-.605957-.9130859c0-.3037109.3027344-.4560547.4541016-.4560547,1.96875,0,11.5087891.9121094,13.6289062.9121094,3.3310547,0,3.3310547-2.1289062,3.3310547-3.6494141,0-.3037109,0-1.5205078-.1513672-3.0410156-.1513672-.9130859-1.362793-5.1708984-1.362793-6.0830078,0-1.2167969.7573242-1.3681641,1.96875-1.3681641.3027344,0,11.5083008,1.2158203,11.5083008,3.3447266,0,.6083984-.1513672.7607422-1.6655273,2.7373047-.3027344.3046875-1.0600586,2.1289062-1.0600586,4.2578125,0,3.9541016,3.331543,3.9541016,4.5429688,3.9541016h9.5400391c1.0600586,0,3.9370117,0,3.9370117-4.1054688,0-1.2167969-.1513672-2.4335938-.4541016-3.9541016-.1518555-.7607422-1.0600586-4.1054688-1.0600586-5.0185547,0-1.0644531.7568359-1.5205078,2.1196289-1.5205078,1.2114258,0,12.4174805,1.8251953,12.4174805,4.5625,0,.6083984-.4545898.9121094-1.96875,2.2802734-1.0600586.7607422-1.362793,1.8251953-1.362793,3.8017578,0,3.6503906,2.2714844,3.9541016,4.3916016,3.9541016,2.4228516,0,3.6337891-.4560547,5.2998047-2.5849609,2.8769531-3.9541016,3.331543-4.4101562,4.5429688-4.4101562,1.9682617,0,9.9941406,6.0830078,9.9941406,8.8203125,0,2.28125-2.8769531,2.28125-8.1772461,2.28125h-11.5083008c-3.9375,0-4.5429688,1.8242188-4.5429688,4.5615234,0,7.7558594,0,8.6679688,2.5742188,8.6679688.7573242,0,1.8173828-.4560547,2.4228516-1.3681641,3.331543-4.7148438,3.6342773-5.3232422,5.1484375-5.3232422,1.8173828,0,11.3574219,6.5390625,11.3574219,8.8203125s-2.7260742,2.28125-8.1772461,2.28125h-8.4799805c-3.7856445,0-4.6943359,1.8251953-4.6943359,4.2578125,0,8.9716797,0,10.3408203,4.9970703,10.3408203,6.3598633,0,6.9658203,0,9.2373047-2.5849609,1.362793-1.6728516,3.4829102-4.1064453,4.9970703-4.1064453,1.2114258,0,10.7514648,6.2353516,10.7514648,8.5166016,0,2.1289062-3.0288086,2.1289062-8.1772461,2.1289062h-28.9228516Zm-24.9853516,17.6396484c-4.6943359,0-4.6943359,2.28125-4.6943359,7.9072266,0,4.1064453,0,6.84375,4.5424805,6.84375h6.6630859c4.3911133,0,4.3911133-2.8896484,4.3911133-5.1708984,0-7.2988281,0-9.5800781-4.6938477-9.5800781h-6.2084961Zm.1513672,18.7041016c-4.2402344,0-4.3916016,2.5859375-4.3916016,4.8662109,0,8.2119141.1513672,10.3408203,4.6943359,10.3408203h5.9057617c4.6943359,0,4.6943359-1.9765625,4.6943359-9.1240234,0-3.3457031,0-6.0830078-4.5429688-6.0830078h-6.3598633Zm8.7827148-72.5361328c-4.5429688,0-4.5429688,2.5849609-4.5429688,6.5380859,0,4.5625,0,6.9960938,4.5429688,6.9960938h9.5400391c4.5424805,0,4.5424805-2.5859375,4.5424805-6.5390625,0-4.4101562,0-6.9951172-4.5424805-6.9951172h-9.5400391Zm.1513672,17.6396484c-4.2397461,0-4.5429688,2.5849609-4.5429688,4.8662109,0,7.4511719,0,9.7324219,4.6943359,9.7324219h9.2373047c4.5424805,0,4.5424805-2.5849609,4.5424805-6.9951172,0-5.3222656,0-7.6035156-4.5424805-7.6035156h-9.3886719Zm15.2944336,36.1923828c-4.5429688,0-4.5429688,2.8896484-4.5429688,5.6269531,0,6.6904297,0,9.1240234,4.5429688,9.1240234h7.8740234c4.3916016,0,4.6943359-2.28125,4.6943359-7.1474609,0-5.3222656-.3027344-7.6035156-4.6943359-7.6035156h-7.8740234Zm.1513672,18.7041016c-4.0888672,0-4.3916016,2.4335938-4.3916016,4.8662109,0,8.3642578,0,10.3408203,4.5429688,10.3408203h7.8740234c4.3916016,0,4.3916016-1.6728516,4.3916016-8.6679688,0-3.953125,0-6.5390625-4.3916016-6.5390625h-8.0253906Z"/>
        <path class="cls-1" d="m323.6533203,18.2841797c-3.0288086,0-8.1772461-.3046875-12.2661133.3037109-.4541016,0-2.5742188.4560547-2.8769531.4560547s-.4541016-.3037109-1.0600586-.9121094l-3.331543-3.4970703c-.3027344-.3046875-.4541016-.6083984-.4541016-1.0644531,0-.3046875.3027344-.3046875.4541016-.3046875.605957,0,3.1801758.4560547,3.7861328.4560547,4.0883789.4560547,11.5083008.6083984,14.9912109.6083984h6.6630859c4.5424805,0,5.2998047-.1523438,6.3598633-1.9765625,3.1796875-5.1708984,3.331543-5.6269531,4.5424805-5.6269531,2.1201172,0,14.0830078,8.515625,14.0830078,9.7324219,0,1.8251953-2.4228516,1.8251953-5.6025391,1.8251953h-3.9375c-1.6655273,0-4.5429688.1523438-4.5429688,4.1054688,0,57.4824219,43.6113281,98.6933594,70.2626953,107.5126953,2.2714844.7607422,2.4228516.7607422,2.4228516,1.3691406,0,.7597656-.9082031.9121094-1.5141602.9121094-1.362793,0-7.1171875-.4560547-8.3286133-.4560547-5.9052734,0-9.6914062.6083984-12.8710938,3.8017578-1.0600586,1.0644531-2.5742188,2.5849609-3.0288086,2.5849609-.6054688,0-20.2915039-14.5986328-35.2827148-46.8369141-5.6025391-12.0136719-9.0854492-23.4189453-9.2373047-24.3310547-1.2109375-4.8662109-1.6655273-4.8662109-2.4228516-4.8662109-.9082031,0-1.362793,1.0644531-4.6938477,10.9492188-7.7231445,22.5058594-21.2001953,40.2978516-40.2802734,53.8320312-10.1455078,7.1474609-22.5625,13.2304688-24.2285156,13.2304688-.6054688,0-.9082031-.6083984-.9082031-1.2167969,0-.7607422.4541016-1.2167969,5.6025391-5.1708984,16.3544922-12.6210938,43.6113281-36.4960938,55.7255859-85.6142578,1.8173828-7.1474609,3.9370117-18.7050781,3.9370117-25.8515625,0-3.9541016-3.0283203-3.9541016-4.5424805-3.9541016h-7.4199219Z"/>
      </g>
      <g>
        <path class="cls-1" d="m450.5825195,46.0380859c0-2.5761719,2.3950195-5.3251953,8.2104492-12.1103516,3.8486328-4.4667969,7.2695312-11.5957031,7.2695312-12.7978516,0-.515625-.5986328-.6015625-.9404297-.6015625-.8554688,0-4.3618164.6875-5.1318359.6875-3.25,0-7.6118164-4.2089844-7.6118164-7.5585938,0-.2578125,0-.6015625.5131836-.6015625s2.7368164,1.375,3.25,1.6318359c1.0263672.515625,3.3354492,1.546875,5.6450195,1.546875,7.0126953,0,7.0126953-2.3193359,7.0126953-4.0371094,0-.515625-.0854492-1.8896484-.684082-3.0068359-.2563477-.4287109-2.0527344-1.9755859-2.0527344-2.4902344,0-.6875,2.2241211-1.375,3.7631836-1.375,2.0527344,0,4.190918.7734375,4.3618164,2.6630859.0854492,1.1162109.4277344,1.2880859,3.8486328,1.5458984.5986328,0,3.8486328.4296875,3.8486328,2.2333984,0,2.8339844-6.2431641,5.2392578-10.1772461,6.7851562-1.2832031.515625-1.3686523.6875-3.25,5.0673828-2.0527344,4.7246094-2.3950195,5.4121094-4.6186523,9.2763672-.4272461.7734375-.5986328,1.03125-.5986328,1.375,0,.171875.0854492.3427734.3422852.3427734.2563477,0,1.8813477-.6005859,2.6513672-.9443359.9404297-.4296875,2.0527344-.6875,3.3354492-.6875,1.1118164,0,5.0458984.171875,7.2695312,5.2402344.5986328,1.4599609.684082,1.6318359.8554688,1.6318359.2563477,0,3.0786133-3.9511719,3.5063477-4.6386719,2.8222656-3.9511719,8.3813477-11.7666016,15.8222656-11.7666016,4.7041016,0,8.0395508,4.0361328,8.0395508,7.6435547,0,4.0371094-6.7568359,6.8720703-12.059082,9.1904297-2.1381836.9453125-11.8027344,4.8105469-13.3422852,5.7548828-1.3681641.859375-1.4536133,1.8037109-1.4536133,3.6074219,0,.7734375.1708984,4.3808594.1708984,5.1533203,0,1.375,0,6.2705078-3.1645508,6.2705078-2.309082,0-2.6513672-2.8339844-2.6513672-4.3808594,0-.8583984.2568359-4.9814453.2568359-5.0673828,0-.34375,0-1.0302734-.5986328-1.0302734-.6845703,0-8.2958984,5.3251953-8.2958984,10.2207031,0,5.9267578,8.5522461,5.9267578,11.0327148,5.9267578,2.1381836,0,3.7631836-.171875,5.4736328-.515625,1.1972656-.171875,6.6708984-1.5458984,7.7827148-1.5458984,1.7958984,0,4.190918.859375,4.190918,2.9199219,0,5.3261719-13.2568359,5.6689453-15.309082,5.6689453-10.8618164,0-16.5922852-4.4658203-16.5922852-11.2509766,0-5.4970703,3.25-8.2460938,11.2895508-14.7734375.8549805-.6875,1.2827148-1.7177734,1.2827148-3.0068359,0-3.8652344-.684082-8.6748047-4.1049805-8.6748047-3.25,0-8.2958984,3.9511719-10.5195312,9.1044922-.940918,2.1474609-1.8818359,4.2089844-4.6186523,4.2089844-1.625,0-3.25-.515625-3.25-2.8349609Zm21.809082-32.4667969c.1708984,0,4.2763672-1.1162109,4.2763672-2.0615234,0-1.1162109-2.1381836-1.2880859-2.9077148-1.2880859-1.1977539,0-1.5395508,2.4042969-1.5395508,2.7480469s0,.6015625.1708984.6015625Zm7.7827148,27.8291016c0,.171875.0854492.4296875.3422852.4296875.2563477,0,17.1049805-6.8720703,17.1049805-12.5410156,0-2.1464844-1.8813477-2.5761719-2.9931641-2.5761719-7.0986328,0-14.4541016,13.3134766-14.4541016,14.6875Z"/>
        <path class="cls-1" d="m543.8349609,60.7255859c1.1118164,0,4.5327148-.34375,8.1245117-.7724609,1.2832031-.171875,6.8427734-1.03125,7.9541016-1.03125,2.9082031,0,5.5595703,2.1474609,5.5595703,4.0371094,0,4.6376953-14.5400391,5.0673828-19.3291016,5.0673828-11.4604492,0-26.5126953-2.4902344-26.5126953-15.2880859,0-2.7490234.9404297-3.9511719,1.1972656-3.9511719.3422852,0,.3422852.171875.940918,2.1474609,1.9667969,6.7851562,10.2626953,9.6191406,16.8481445,9.6191406.5131836,0,4.3618164.171875,5.2172852.171875Zm-13.1708984-46.9824219c6.5,0,12.6577148-1.2880859,13.7695312-1.5458984,3.0791016-.6875,3.7631836-.6875,4.2768555-.6875,4.0195312,0,7.953125,4.0371094,7.953125,5.8408203,0,1.2880859-.5986328,1.5458984-6.3291016,2.8339844-4.2758789,1.03125-7.1835938,3.3505859-10.0917969,5.6689453-.684082.6015625-.7695312.6875-1.1118164.6875-.1708984,0-.2563477-.171875-.2563477-.2578125,0-.6875,3.7631836-5.2392578,3.7631836-6.2705078,0-.6005859-.2568359-.6005859-2.9082031-.6865234-10.0063477-.171875-16.1640625-4.6386719-16.1640625-5.8408203,0-.2578125.4277344-.34375.5986328-.34375.2563477,0,.5131836.0859375,2.7368164.4296875,1.4541016.171875,2.9077148.171875,3.7631836.171875Zm36.2631836,10.8222656c2.4794922,1.6318359,3.6767578,3.6074219,3.6767578,4.8955078,0,1.6318359-1.0253906,3.3496094-2.3945312,3.3496094-1.1113281,0-1.7099609-.3427734-4.6181641-3.5214844-1.7109375-1.8896484-2.3945312-2.3183594-6.2431641-4.7236328-.4277344-.34375-1.3681641-.9453125-1.3681641-1.2880859,0-.2578125.6835938-.7734375,1.453125-.7734375,3.5927734,0,6.3291016,0,9.4941406,2.0615234Zm12.6572266-2.0615234c0,.9453125-.6835938,2.5771484-2.2236578,2.5771484-1.7958734,0-2.8222406-1.2890625-4.4472406-3.1787109-1.1113281-1.3740234-4.6181641-3.7792969-7.4404297-4.8095703-.9414062-.34375-1.1123294-.6875-1.1123294-.9443359,0-.6015625,1.7109622-1.03125,3.1650637-1.03125,7.6113281,0,12.0585938,3.9511719,12.0585938,7.3867188Z"/>
        <path class="cls-1" d="m612.5258789,23.1914062c-2.9082031,0-2.9082031.6865234-2.9082031,7.0429688,0,1.8896484.4277344,2.0615234,2.3095703,2.6621094,4.1904297,1.375,8.5527344,6.3564453,8.5527344,9.9638672,0,1.8037109-1.1123047,3.0917969-2.7373047,3.0917969-2.9072266,0-3.5917969-2.6621094-4.6181641-7.3007812-.6845703-2.8339844-2.4804688-4.7236328-2.9931641-4.7236328-.5136719,0-.5986328.9443359-.5986328,1.2021484-.0859375,5.3251953-.0859375,31.0927734-.0859375,36.5898438v3.3496094c0,1.546875-2.0527344,3.0068359-3.6777344,3.0068359-2.1376953,0-2.1376953-1.3740234-2.1376953-2.1474609,0-1.2880859.3417969-6.8710938.4277344-8.0742188.0849609-2.3183594.4277344-21.9023438.4277344-24.2207031,0-.2578125,0-.9453125-.5136719-.9453125-.4277344,0-.6835938.515625-3.1640625,4.8955078-3.1650391,5.5830078-3.5068359,6.1845703-6.8417969,9.7919922-.7705078.859375-1.4541016,1.1162109-1.625,1.1162109-.0859375,0-.171875-.0849609-.171875-.2568359,0-.7734375,1.8818359-3.8652344,2.2246094-4.5527344,5.9003906-12.1103516,9.4931641-24.1357422,9.4931641-28.2578125,0-1.03125-.3427734-2.1474609-2.0527344-2.1474609-1.1123047,0-6.6708984.3427734-7.0136719.3427734-.2558594,0-.4267578-.1708984-.6835938-.5146484l-1.3681641-1.9755859c-.171875-.2578125-.3427734-.4296875-.3427734-.6015625,0-.0859375.0859375-.171875.2568359-.171875.4277344,0,2.3095703.2578125,2.6513672.2578125,1.5390625.0859375,5.5585938.2578125,7.1835938.2578125,2.0527344,0,2.3955078-1.2021484,2.3955078-2.5771484,0-1.2021484.0849609-9.5332031.0849609-10.7363281,0-1.0302734-.2568359-5.5830078-.2568359-6.5273438,0-.2578125,0-.515625.2568359-.515625,1.0263672,0,7.4404297,1.3740234,7.4404297,2.4912109,0,.5146484-1.7958984,2.2333984-1.9667969,2.6621094-.5986328,1.2890625-.5986328,10.3935547-.5986328,12.6259766,0,.859375,0,2.6630859,2.2236328,2.6630859,2.0527344,0,2.3945312-.34375,3.25-1.4599609.8554688-1.2890625,1.2832031-1.8896484,1.7958984-1.8896484.3427734,0,5.2177734,3.1777344,5.2177734,4.3798828,0,1.203125-1.4541016,1.203125-3.9345703,1.203125h-5.9013672Zm47.9794922-2.5771484c4.0205078,3.0917969,5.6455078,4.0371094,10.1777344,6.1845703.1708984.0859375.5136719.2578125.5136719.4296875,0,.4287109-2.4804688.7724609-2.9082031.9443359-1.0263672.34375-1.625.6875-2.1376953,1.1162109-.4277344.4296875-1.7109375,1.546875-2.0527344,1.546875-.6845703,0-7.7832031-6.3564453-14.5400391-17.7802734-.6835938-1.2021484-4.1044922-7.5585938-4.4472656-7.5585938-.4277344,0-1.7958984,2.2333984-2.3085938,3.0068359-4.1054688,6.1835938-10.0917969,14.6875-20.4404297,22.6748047-.4277344.2578125-3.3359375,2.2333984-3.7636719,2.2333984-.0849609,0-.2568359-.171875-.2568359-.2578125,0-.5146484.0859375-.6005859,2.9082031-3.8652344,3.5917969-4.1220703,15.3095703-17.4355469,17.7041016-27.3134766.4277344-1.6318359.5126953-1.9755859.7695312-1.9755859.5986328,0,7.6972656,1.7177734,7.6972656,3.0927734,0,.2578125-.5986328,1.0302734-.5986328,1.2021484,0,.9453125,7.8681641,11.9394531,13.6835938,16.3193359Zm-23.5195312,16.7490234c1.0263672,0,2.6513672,0,2.6513672-2.5771484,0-.6865234.0859375-4.0361328,0-4.6376953,0-.9453125,0-2.4912109-2.3085938-2.4912109-.5986328,0-4.0195312.4296875-4.3623047.4296875-.1708984,0-.2558594-.171875-.5126953-.6015625l-1.2832031-1.9755859c-.1708984-.2568359-.2568359-.4287109-.2568359-.6005859,0-.0859375.0859375-.171875.2568359-.171875.2568359,0,1.9667969.2578125,2.3095703.2578125.4277344,0,5.6445312.34375,7.953125.34375,1.8818359,0,5.1318359,0,5.6455078-.2578125.1708984-.0859375,1.7958984-2.5771484,2.1376953-3.0068359.1708984-.2578125.5136719-.7724609,1.0263672-.7724609.9404297,0,5.1318359,4.2080078,5.1318359,5.0673828,0,1.2880859-1.2832031,1.2880859-3.4208984,1.2880859h-4.3623047c-2.2236328,0-2.7363281,0-2.7363281,7.6445312,0,2.0615234,1.7958984,2.0615234,2.9072266,2.0615234h3.5068359c1.7109375,0,3.0791016,0,3.8486328-.859375,1.625-1.6318359,1.7958984-1.8037109,2.2236328-1.8037109,1.5390625,0,5.5595703,3.5224609,5.5595703,4.2089844,0,.34375-.171875.515625-1.5400391,1.4599609-.5126953.34375-.6835938.6875-.6835938,1.8896484,0,1.03125-.171875,5.7548828-.171875,6.7001953,0,.9443359.171875,5.1533203.171875,5.8398438,0,2.3193359-2.9941406,3.0068359-3.7636719,3.0068359-1.7958984,0-1.8818359-.859375-2.0527344-2.3193359-.1708984-1.8896484-1.9667969-1.8896484-2.5654297-1.8896484h-6.5859375c-.3417969,0-.6835938,0-.6835938.6015625,0,.4296875,4.1904297,8.8466797,11.9736328,13.484375,4.3613281,2.5771484,6.328125,3.1787109,12.1445312,4.9824219.4277344.171875,1.7099609.6005859,1.7099609.8583984,0,.515625-2.7363281.9453125-3.1640625,1.1171875-2.9931641,1.1162109-3.25,1.4599609-5.0458984,3.0058594-.3417969.34375-.6845703.34375-.8554688.34375-1.9667969,0-11.9736328-8.3320312-16.6777344-18.9824219-.4277344-1.0302734-1.1972656-3.0058594-1.5390625-3.8652344-.0859375.34375-1.1123047,4.1230469-1.2832031,4.7246094-4.1044922,11.4228516-17.5322266,18.6386719-21.6376953,18.6386719-.4277344,0-.6845703,0-.6845703-.2578125,0-.171875,3.8486328-2.6630859,4.6191406-3.1787109,9.9208984-7.3007812,13.7695312-17.3496094,13.7695312-19.2392578,0-2.2333984-1.9677734-2.2333984-2.7373047-2.2333984h-4.0195312c-2.3945312,0-2.5654297.859375-2.7363281,2.2333984-.171875,1.2880859-1.3691406,2.6621094-3.421875,2.6621094-1.625,0-1.7099609-.6865234-1.7099609-1.6318359,0-.6005859.1708984-3.4355469.1708984-4.0361328,0-2.0615234.0859375-10.9941406.0859375-12.4550781,0-.5146484-.171875-3.7792969-.171875-4.4658203,0-.515625,0-1.7177734.3427734-1.7177734.5126953,0,4.6181641,2.2333984,5.5585938,2.6621094,1.0263672.4296875,2.2236328.515625,3.3359375.515625h3.9335938Zm-5.1308594,2.2333984c-2.2236328,0-2.6513672.8583984-2.6513672,2.7480469v6.3564453c0,1.9755859.5986328,2.6621094,2.6513672,2.6621094h4.4472656c2.5654297,0,3.3349609,0,3.3349609-9.1044922,0-1.9755859-.5986328-2.6621094-2.7363281-2.6621094h-5.0458984Zm20.5253906,11.7666016c2.7373047,0,2.7373047-.6865234,2.7373047-5.8398438,0-5.2402344,0-5.9267578-2.7373047-5.9267578h-5.0458984c-1.3681641,0-2.3945312.2578125-2.6513672,1.7177734-.0849609.4296875-.4267578,6.8710938-.4267578,7.5585938,0,2.4902344,1.625,2.4902344,2.6503906,2.4902344h5.4736328Z"/>
        <path class="cls-1" d="m700.7758789,16.7490234c3.4208984,0,3.7626953,0,4.3613281-.6865234.5136719-.515625,2.5654297-3.2646484,3.25-3.2646484,1.1972656,0,5.5595703,3.5214844,5.5595703,5.0683594,0,1.1162109-.5136719,1.1162109-4.6191406,1.1162109h-16.9335938c-1.5400391,0-7.0136719.0859375-8.8095703.2578125-.2558594,0-1.5390625.171875-1.7958984.171875s-.4277344-.171875-.7695312-.515625l-1.625-1.9755859q-.3417969-.4296875-.3417969-.6015625c0-.1708984.0849609-.1708984.2558594-.1708984.5136719,0,11.1191406.6005859,13.1708984.6005859h8.296875Zm-3.0791016,12.0253906c3.3349609,0,3.7626953,0,5.0458984-1.7177734.5986328-.6875,1.7099609-1.8896484,2.3945312-1.8896484,1.0263672,0,5.7304688,3.1777344,5.7304688,4.7236328,0,1.1162109-.4277344,1.1162109-4.5332031,1.1162109h-10.3486328c-.0849609,0-6.0722656.0859375-8.2099609.2578125-.2568359,0-1.5400391.171875-1.7958984.171875-.2568359,0-.4277344-.171875-.7705078-.515625l-1.625-1.9746094q-.3417969-.4296875-.3417969-.6015625c0-.0859375.0859375-.171875.2568359-.171875.4277344,0,2.2236328.171875,2.6513672.2578125,1.7099609.0859375,8.2099609.34375,9.9208984.34375h1.625Zm-4.0195312,39.9394531c-1.5400391,0-2.5664062.6015625-2.5664062,2.2333984,0,.3427734.1708984,2.3183594.1708984,2.7480469,0,2.2333984-.9404297,4.4667969-4.703125,4.4667969-1.625,0-1.625-1.1171875-1.625-1.7177734,0-.7734375.1708984-4.3808594.1708984-5.1542969,0-3.1777344,0-17.9511719-.1708984-19.4111328-.0859375-.515625-.5986328-3.0058594-.5986328-3.6074219s.5126953-.7734375.8544922-.7734375c1.0263672,0,2.9941406.7734375,4.6191406,1.546875,1.453125.6005859,2.6503906.6005859,3.6767578.6005859h6.7568359c.7695312,0,1.3681641.0859375,1.9667969-.2578125.3427734-.1708984,1.796875-2.0605469,2.3095703-2.0605469.4277344,0,.7695312.2568359,3.1640625,1.8896484q2.9082031,1.9746094,2.9082031,2.6621094c0,.859375-.4277344,1.1162109-1.4541016,1.9755859-.5986328.515625-.7695312,1.1162109-.7695312,2.3193359,0,1.8896484.1708984,11.5947266.1708984,13.7421875,0,3.7792969-3.7626953,3.7792969-4.1904297,3.7792969-1.7958984,0-1.7958984-.6865234-1.8818359-3.0917969-.0849609-1.8896484-1.9667969-1.8896484-2.5654297-1.8896484h-6.2431641Zm3.078125-28.7734375c2.4804688,0,3.3359375,0,4.1054688-.34375s3.0791016-3.4355469,3.8486328-3.4355469c1.1972656,0,5.0458984,3.6074219,5.0458984,4.8095703,0,1.2880859-1.7099609,1.2880859-4.6181641,1.2880859h-10.3486328c-1.1972656,0-6.5.4296875-7.6113281.4296875-.3427734,0-.5136719-.2578125-.7705078-.6015625l-1.625-1.9755859c-.3417969-.3427734-.3417969-.4287109-.3417969-.5146484,0-.171875.0859375-.2578125.2568359-.2578125.5126953,0,2.6513672.2578125,3.0791016.2578125,2.9931641.2578125,5.1308594.34375,7.0986328.34375h1.8808594Zm-1.1972656-31.4365234c-1.1972656,0-6.5.4287109-7.6972656.4287109-.2558594,0-.4277344-.1708984-.7695312-.5146484l-1.625-1.9755859q-.3417969-.4296875-.3417969-.6015625c0-.171875.0849609-.171875.2558594-.171875,1.625,0,8.8095703.6015625,10.3486328.6015625,2.5664062,0,3.9345703,0,4.6191406-.2578125.7695312-.2578125,3.4208984-3.0058594,4.1044922-3.0058594,1.1982422,0,4.7900391,3.1777344,4.7900391,4.2939453,0,1.203125-.4277344,1.203125-4.5332031,1.203125h-9.1513672Zm-1.8808594,43.375c-2.8232422,0-2.8232422.6015625-2.8232422,6.0986328,0,8.2451172,0,8.5029297,2.8232422,8.5029297h6.328125c2.8222656,0,2.8222656-.7724609,2.8222656-7.4726562,0-6.3554688,0-7.1289062-2.7363281-7.1289062h-6.4140625Zm53.1962891-27.6572266c-2.6513672,0-2.6513672,1.3740234-2.6513672,3.4355469,0,5.8408203.2568359,31.6083984.2568359,36.8476562s-.0859375,8.1601562-2.8222656,10.8222656c-1.625,1.6318359-4.7041016,2.7490234-6.4140625,2.7490234-.9414062,0-1.1982422-.4296875-1.8818359-2.1474609-.5136719-1.4599609-2.6513672-3.8652344-3.6777344-4.5527344-.4277344-.3427734-2.3095703-1.7177734-2.3095703-1.8896484,0-.1708984.2568359-.1708984.3427734-.1708984,1.1972656,0,6.4140625.4287109,7.4404297.4287109,1.7958984,0,3.0791016-.0859375,3.4208984-1.8896484.2568359-1.3740234.2568359-13.7421875.2568359-16.0615234,0-5.8408203-.1708984-20.0986328-.4277344-25.0800781-.1708984-2.4912109-1.4541016-2.4912109-2.6513672-2.4912109h-6.2431641c-7.5263672,0-10.0068359.171875-10.8623047.2578125-.2558594,0-1.5390625.171875-1.7958984.171875-.2558594,0-.4277344-.171875-.7695312-.515625l-1.625-1.9755859q-.3417969-.4287109-.3417969-.6005859c0-.171875.0849609-.171875.2558594-.171875.5996094,0,3.25.2578125,3.7636719.2578125,4.1904297.1708984,7.7832031.3427734,11.8027344.3427734h5.7294922c2.6513672,0,2.6513672-1.4599609,2.6513672-4.8095703,0-3.0917969-.1708984-10.4785156-.7695312-13.1416016-.0849609-.4296875-.8554688-2.3193359-.8554688-2.6621094,0-.6875.5986328-.6875.7705078-.6875.5126953,0,9.2363281,1.8037109,9.2363281,3.5214844,0,.515625-2.2236328,2.2333984-2.3945312,2.6630859-.1708984.4287109-.1708984,6.4414062-.1708984,7.4726562,0,7.3867188,0,7.4716797,1.7099609,7.4716797.9414062,0,1.7109375-.4287109,2.3945312-1.3740234,1.0263672-1.2880859,2.5664062-3.2636719,3.0791016-3.2636719.5136719,0,7.2695312,4.7236328,7.2695312,5.8408203,0,1.2021484-1.7099609,1.2021484-4.6181641,1.2021484h-7.0986328Zm-27.2822266,10.3076172c-.0859375-.171875-.5986328-.7734375-.5986328-.9453125s.0849609-.2578125.2558594-.2578125c.6845703,0,11.375,6.0986328,11.375,12.6259766,0,2.4912109-1.8808594,4.8105469-3.9335938,4.8105469-2.2236328,0-2.6513672-2.1474609-2.7373047-2.6630859-.9404297-5.7548828-1.1113281-6.6132812-3.0791016-11.0800781-.4267578-.9443359-.5986328-1.2021484-1.2822266-2.4902344Z"/>
        <path class="cls-1" d="m801.2387695,14.9453125c0,.2578125.1708984.6015625.1708984.9453125.3417969,2.7480469.8554688,5.4970703.8554688,9.2763672,0,5.7539062-1.2832031,13.7421875-8.8095703,25.1660156-6.8417969,10.4785156-11.2041016,12.5400391-14.625,12.5400391-5.6445312,0-10.6904297-8.8466797-10.6904297-19.3251953,0-4.5527344.9404297-13.2275391,9.4931641-21.9023438,10.8613281-11.1660156,22.3222656-11.1660156,27.2832031-11.1660156,7.7822266,0,11.3740234,1.5458984,13.7695312,2.7480469,9.2363281,4.5527344,14.8808594,13.7431641,14.8808594,24.9951172,0,11.1650391-6.4140625,24.9082031-21.5527344,30.2333984-7.2695312,2.5771484-12.9140625,3.1777344-14.1962891,3.1777344-.3427734,0-.8554688-.0859375-.8554688-.6005859,0-.2578125.1708984-.34375,2.3085938-1.203125,8.8945312-3.5214844,27.4541016-10.9082031,27.4541016-32.2949219,0-3.3496094-.3417969-23.7919922-23.6904297-23.7919922-1.7109375,0-1.7958984.6875-1.7958984,1.2021484Zm-27.7958984,26.3691406c0,5.5830078,2.2236328,13.2275391,7.4404297,13.2275391,2.4804688,0,4.5332031-1.03125,10.4345703-9.9638672,4.5322266-6.9570312,8.3808594-16.4912109,8.3808594-24.9941406,0-5.1533203-.3417969-5.5830078-1.4541016-5.5830078-8.125,0-24.8017578,11.0800781-24.8017578,27.3134766Z"/>
        <path class="cls-1" d="m881.2524414,25.4248047c0,2.8339844-6.5,5.4111328-8.5527344,6.2695312-1.1972656.4296875-1.2832031.7734375-1.4541016,3.7792969-.1708984,1.8896484-.1708984,8.8466797-.1708984,9.2763672,0,.515625,0,1.5458984.7695312,1.5458984.2568359,0,7.2695312-2.9199219,8.6386719-3.4355469,8.4667969-3.1777344,12.3154297-3.4355469,14.5390625-3.4355469,6.2431641,0,13.1708984,4.8955078,13.1708984,12.9697266,0,11.3378906-11.8876953,16.4912109-18.9013672,16.4912109-4.875,0-8.8085938-2.4912109-8.8085938-6.9570312,0-4.0371094,3.5058594-6.7861328,4.2763672-6.7861328.2558594,0,.4267578.2578125.4267578.4296875,0,.2578125-.1708984.4296875-.3417969.6875-.2568359.3427734-.7695312,1.0302734-.7695312,2.3183594,0,4.1230469,4.7041016,4.1230469,5.5595703,4.1230469,5.6445312,0,12.828125-3.7792969,12.828125-10.6503906,0-6.0986328-4.5322266-9.4482422-8.2099609-9.4482422-2.3945312,0-7.6972656,1.1171875-17.7041016,6.4423828-4.7890625,2.5761719-5.3027344,2.8339844-5.3027344,4.2939453,0,.9453125.2568359,4.8105469.2568359,5.6689453,0,3.9511719-1.2832031,9.6201172-4.3623047,9.6201172-2.3085938,0-3.2490234-1.8037109-3.9335938-3.1777344-2.7373047-5.3251953-3.1650391-5.3251953-4.2763672-5.3251953-.7695312,0-1.625.3427734-2.1376953.5146484-.5136719.2578125-2.6513672,1.7177734-3.25,1.7177734-.9414062,0-5.3027344-2.5761719-5.3027344-5.4111328,0-1.5458984.9404297-3.3496094,2.4794922-3.3496094.5136719,0,2.9941406.4296875,3.5068359.4296875,2.3095703,0,3.8486328-.4296875,8.8945312-2.9208984,4.3623047-2.1464844,4.875-2.4042969,4.875-4.8095703,0-1.9755859-.0849609-9.2763672-.1708984-10.7363281,0-.6015625-.2568359-1.8896484-1.1972656-1.8896484-1.0263672,0-3.4208984.6015625-3.9345703.7734375-4.3613281,1.4599609-4.7890625,1.6318359-6.0722656,1.6318359-2.9072266,0-6.1572266-5.9267578-6.1572266-6.5283203,0-.4296875.3417969-.6005859.6835938-.6005859.2568359,0,1.2832031.3427734,1.5400391.3427734,1.5390625.2578125,2.8222656.4296875,3.9335938.4296875,3.0791016,0,10.3486328-2.0615234,10.8623047-2.5761719.4277344-.6015625.8554688-8.4179688.8554688-9.3623047,0-2.6630859-.4277344-4.3808594-2.8232422-6.8720703-.1708984-.1708984-1.1972656-1.2021484-1.1972656-1.3740234,0-.7724609,1.3691406-.9443359,1.8818359-.9443359,5.7304688,0,8.8095703,4.2080078,8.8095703,5.8408203,0,.7724609-1.625,3.8642578-1.7958984,4.4658203-.0859375.6015625-.8554688,4.0371094-.8554688,5.5830078,0,.34375.1708984.9453125.6835938.9453125.5986328,0,2.9941406-.9453125,2.9941406-2.1474609,0-.171875-.4277344-1.03125-.4277344-1.203125,0-.0859375.1708984-.2578125.3417969-.3427734,1.1972656-.171875,5.3027344,1.0302734,5.3027344,3.6933594Zm-19.5,32.8964844c0,1.2880859,2.3095703,4.0361328,3.5917969,4.0361328,1.1972656,0,2.3955078-2.4042969,2.3955078-6.6132812,0-.34375,0-1.2021484-.2568359-1.3740234-.2568359,0-5.7304688,2.7480469-5.7304688,3.9511719Zm56.1904297-26.7128906c0,1.8037109-1.0263672,4.1230469-2.8222656,4.1230469-.5136719,0-2.4804688-.171875-2.9082031-.171875-.4277344.0859375-2.2236328.6015625-2.5654297.6015625-.1708984,0-.4277344-.0859375-.4277344-.4296875,0-.171875.2568359-.6015625.2568359-.6875.1708984-.5146484.3417969-.9443359.3417969-1.5458984,0-3.4355469-4.2763672-4.6376953-7.1845703-4.6376953-1.3681641,0-2.1376953.3427734-3.3349609.8583984-.3417969.171875-.5986328.2578125-.8554688.2578125s-.3417969-.0859375-.3417969-.34375c0-.6005859,3.5917969-5.4111328,9.2363281-5.4111328,6.5859375,0,10.6054688,3.4355469,10.6054688,7.3867188Z"/>
        <path class="cls-1" d="m955.7241211,73.3515625c-1.5390625,0-1.9667969.171875-2.6513672,1.9755859-.6835938,1.7177734-1.5390625,2.8349609-3.5917969,2.8349609-2.3945312,0-2.6513672-1.203125-2.6513672-3.1787109,0-2.4042969.4277344-12.6259766.4277344-14.7724609,0-6.9580078-.4277344-6.9580078-1.5390625-6.9580078-.5136719,0-2.9082031.859375-3.3359375.9453125-2.3945312.6005859-9.3222656,2.3193359-15.3085938,2.3193359-.4277344,0-.5986328-.171875-.5986328-.4296875,0-.6875,5.3876953-1.7177734,6.4140625-2.0615234,4.6181641-1.5458984,15.8222656-5.1533203,24.8027344-11.7675781,1.5390625-1.1162109,5.6445312-4.1220703,5.6445312-5.2392578,0-.4296875-1.4541016-2.4902344-2.2236328-3.5214844-1.5400391-2.0615234-2.8222656-4.1230469-4.1054688-6.2695312-.3417969-.6015625-.7695312-1.375-1.5390625-1.375-.5136719,0-.7705078.171875-2.9082031,2.0615234-4.0195312,3.4355469-9.6640625,6.8710938-15.3945312,9.1904297-.0859375,0-3.6777344,1.4599609-3.7636719,1.4599609-.1708984,0-.3417969-.171875-.3417969-.3427734,0-.0859375.4277344-.4296875,3.6777344-2.9208984,4.1904297-3.1777344,16.5068359-12.6259766,18.9013672-19.8408203.5126953-1.4599609.5126953-1.6318359.8544922-1.6318359.171875,0,6.7568359,3.4355469,6.7568359,4.6376953,0,.4296875-.2568359.515625-1.3681641.9453125-.5136719.171875-1.3681641.6865234-1.3681641,1.2880859s.7695312.6015625,1.0263672.6015625h14.5390625c1.0263672,0,2.0527344,0,3.1640625-1.2890625.9414062-1.0302734,2.3945312-2.7480469,2.8222656-2.7480469.5136719,0,.7705078.2578125,3.3359375,2.4052734,2.6513672,2.2324219,2.9931641,2.4902344,2.9931641,3.0917969,0,1.2880859-1.1972656,1.4599609-2.3945312,1.6318359-1.625.2578125-2.1386719.7734375-4.0195312,2.7490234-2.2236328,2.3183594-5.7304688,6.1835938-8.0400391,8.4169922-1.3681641,1.3740234-1.9667969,1.9755859-1.9667969,2.4912109,0,1.6318359,16.5068359,10.3066406,33.4404297,10.3066406.8554688,0,1.0263672,0,1.0263672.4296875,0,.2578125-.4277344.5146484-1.0263672.7724609-2.1376953,1.1171875-4.7041016,3.2646484-5.4736328,5.4111328-.2568359.7734375-.4277344,1.203125-.8554688,1.203125-1.3681641,0-14.9667969-5.1533203-18.9863281-7.2148438-4.1054688-2.1474609-5.8154297-3.1787109-9.4082031-6.0126953-1.5390625-1.2021484-1.9667969-1.5458984-2.7363281-1.5458984-.5136719,0-.8554688.2578125-3.5068359,2.1474609-5.2167969,3.6074219-11.0322266,6.4414062-12.0585938,6.9570312-1.7958984.8583984-2.4804688,1.1162109-2.4804688,1.8896484,0,.6865234,3.3359375,2.7480469,5.3876953,2.7480469h23.2636719c.5986328-.6865234,1.9667969-2.2333984,2.5654297-2.2333984.3417969,0,6.0722656,3.6083984,6.0722656,5.1542969,0,.8583984-.3417969,1.0302734-2.0527344,1.8896484-.8554688.4287109-.8554688,1.0302734-.8554688,1.6318359,0,1.9755859.5136719,11.9384766.5136719,12.3681641,0,3.6933594-3.8486328,3.7792969-4.3623047,3.7792969-2.2236328,0-2.3945312-1.2880859-2.4794922-2.6630859-.171875-1.7177734-1.1123047-1.7177734-2.7373047-1.7177734h-19.5Zm33.8681641-62.7001953c1.625,0,2.2236328-.4296875,2.8222656-1.4609375.8554688-1.2880859.8554688-1.3740234,1.2832031-1.3740234.3417969,0,4.0195312,2.1474609,4.6181641,2.4912109,4.4472656,2.5761719,4.875,2.8339844,4.875,4.2080078,0,.515625-.3417969,1.4609375-1.7099609,1.546875-2.3955078.171875-5.8164062.5146484-7.7832031,1.8037109-.5986328.3427734-3.1640625,3.1777344-3.25,3.1777344-.1708984,0-.1708984-.0859375-.1708984-.2578125,0-.0859375,1.1972656-5.0673828,1.1972656-6.0126953,0-1.7177734-.5986328-1.8896484-1.9667969-1.8896484h-49.1777344c-2.1376953,0-2.2236328.9453125-2.5654297,3.6933594-.2568359,1.8896484-1.625,7.6445312-5.9013672,7.6445312-1.7958984,0-3.6777344-1.0302734-3.6777344-3.3496094,0-1.4599609.3417969-1.9755859,3.25-6.4414062.9404297-1.375,2.9082031-5.5830078,2.9082031-7.8164062,0-.171875,0-.515625.3417969-.515625.4277344,0,1.3681641,1.2021484,1.9667969,2.2333984,1.1123047,2.0615234,1.2832031,2.3193359,3.0791016,2.3193359h20.3554688c2.3085938,0,2.3085938-1.6328125,2.3085938-2.8349609,0-1.2880859,0-4.2089844-.2558594-5.3251953-.0859375-.2578125-.4277344-1.2880859-.4277344-1.5458984,0-.34375.1708984-.7734375.7695312-.7734375.2568359,0,5.3027344,1.375,5.7304688,1.4599609,2.8222656.7734375,3.1640625.7734375,3.1640625,1.546875,0,.7724609-.6845703,1.1162109-1.3681641,1.4599609-.9414062.515625-1.2832031.7724609-1.2832031,3.6933594,0,1.4599609.5986328,2.3193359,2.3945312,2.3193359h18.4736328Zm-33.6972656,46.7246094c-.5986328,0-2.6503906,0-2.6503906,2.1474609,0,.7724609,0,9.7060547.0849609,9.8779297.4277344,1.3740234,1.1123047,1.6318359,2.5654297,1.6318359h19.8427734c1.7099609,0,2.1376953-.515625,2.4794922-1.546875.0859375-.2568359.1708984-6.7851562.1708984-10.2207031,0-1.4599609-1.625-1.8896484-2.6503906-1.8896484h-19.8427734Zm3.8486328-33.8408203c-.4267578,0-1.7099609,0-1.7099609.9443359,0,.859375,6.5,10.0498047,8.4667969,10.0498047.9404297,0,1.2832031-.34375,4.3623047-3.6933594,1.0263672-1.203125,4.9599609-5.4111328,4.9599609-6.2705078,0-1.0302734-.8554688-1.0302734-1.7958984-1.0302734h-14.2832031Z"/>
        <path class="cls-1" d="m1035.6606445,23.3632812c-2.7363281,0-2.7363281.8583984-2.7363281,4.8955078,0,1.2880859.5126953,1.5458984,2.3095703,2.5771484,6.8417969,3.8642578,7.8681641,6.8710938,7.8681641,9.5332031,0,2.4912109-1.1972656,4.2949219-3.25,4.2949219-2.5664062,0-2.9082031-1.9755859-3.5917969-6.5273438-.4277344-2.5771484-2.1386719-5.0683594-2.9082031-5.0683594-.4277344,0-.4277344.859375-.4277344,1.03125,0,5.9267578.1708984,31.9511719.0859375,37.1904297,0,3.4365234,0,7.2158203-3.6777344,7.2158203-2.2236328,0-2.2236328-1.6328125-2.2236328-2.3193359,0-2.0615234.2558594-5.4970703.3417969-7.6445312.1708984-2.9199219.7695312-26.8837891.7695312-27.5712891,0-.2578125-.0849609-.6875-.3417969-.6875-.0859375,0-.5136719.0859375-.8554688.6015625-2.3095703,3.6074219-9.1513672,14.34375-11.4599609,14.34375-.0859375,0-.4277344-.0859375-.4277344-.4296875,0-.0849609,3.0791016-4.6376953,3.5917969-5.4970703,5.8154297-9.8769531,8.3818359-22.8466797,8.3818359-24.1347656,0-1.8037109-1.625-1.8037109-2.3095703-1.8037109-.9404297,0-5.7304688.4287109-6.4140625.4287109-.3427734,0-.5136719-.2568359-.7705078-.6005859l-1.7099609-1.9755859c-.2568359-.34375-.3417969-.4296875-.3417969-.515625,0-.171875.0849609-.2578125.3417969-.2578125,1.5390625,0,8.3818359.515625,9.8349609.515625,2.8222656,0,2.8222656-2.4052734,2.8222656-3.6074219,0-1.3740234,0-8.9326172-.0849609-9.7060547-.1708984-1.8896484-.9404297-5.5830078-.9404297-6.7851562,0-.4296875.3417969-.515625.5986328-.515625.2558594,0,3.6767578.515625,6.4140625,1.5458984.4277344.171875,1.0263672.4296875,1.0263672,1.203125,0,.6005859-1.4541016,3.0917969-1.5400391,3.6074219-.5986328,2.3183594-.8544922,10.1347656-.8544922,12.7978516,0,1.3740234.5126953,1.5458984,1.7099609,1.5458984.7695312,0,1.8818359-.0859375,2.6513672-1.2880859,1.2832031-1.9755859,1.4541016-2.2333984,2.1386719-2.2333984,1.0263672,0,5.3017578,4.1230469,5.3017578,4.6376953,0,1.203125-1.7958984,1.203125-4.6181641,1.203125h-4.7041016Zm18.5595703,37.2763672c.7695312-.4287109,4.875-2.6621094,5.0458984-2.6621094.2568359,0,.3417969.2578125.3417969.34375,0,1.0302734-10.5195312,9.7910156-11.5458984,12.1962891-.4277344,1.1162109-.8544922,2.0615234-1.5390625,2.0615234-1.1972656,0-5.3027344-7.1289062-5.3027344-7.3007812,0-.34375.1708984-.4296875.5126953-.4296875.9414062,0,2.0527344-.171875,3.1650391-.4296875,2.3945312-.6865234,6.1582031-2.0615234,9.3222656-3.7792969Zm2.9931641-7.3007812c0,1.8896484-.9404297,3.1787109-2.7363281,3.1787109-1.8818359,0-2.5664062-1.375-3.5927734-3.6083984-.5986328-1.3740234-2.6513672-5.8398438-5.8154297-9.5332031-.1708984-.171875-.2568359-.34375-.2568359-.515625s0-.4296875.3427734-.4296875c1.1113281,0,6.6708984,3.0068359,9.1503906,5.1533203.9414062.7734375,2.9082031,2.8349609,2.9082031,5.7548828Zm14.0263672-22.7607422c-2.6513672,0-2.6513672.9443359-2.6513672,6.1835938,0,2.4912109,1.625,2.4912109,2.7373047,2.4912109h6.0722656c3.5917969,0,4.0195312,0,4.875-.7734375.5986328-.5146484,2.5654297-3.8652344,3.2490234-3.8652344.2568359,0,7.2705078,4.6386719,7.2705078,5.6689453,0,1.203125-1.7109375,1.203125-4.6191406,1.203125h-2.7363281c-.4277344,0-1.1972656.0859375-1.1972656.6865234,0,.6875,4.1904297,3.6074219,4.1904297,4.6386719,0,.6865234-.2568359.7724609-2.3085938,1.4599609-3.3359375,1.2021484-3.9345703,1.7177734-9.4082031,6.6132812-.6845703.6015625-.8554688.7734375-.8554688,1.2890625,0,1.8896484,10.4345703,10.3066406,18.9013672,10.3066406.1708984,0,.5986328,0,.5986328.2578125,0,.171875-4.4472656,2.4052734-5.2167969,2.9199219-.5986328.4296875-3.0791016,2.8349609-3.6777344,2.8349609-.6845703,0-9.4082031-4.1230469-16.4208984-20.5283203-.7695312-1.7177734-.7695312-1.8896484-1.1123047-1.8896484-.4277344,0-.4277344.4296875-.4277344.7734375,0,.4287109-.0849609,2.3183594-.0849609,2.6621094,0,2.6630859.7695312,14.0859375.7695312,16.4052734,0,3.4355469-.5126953,5.4970703-2.5654297,6.7861328-1.7958984,1.1162109-3.6777344,1.5458984-4.3623047,1.5458984-.5986328,0-.7695312-.4296875-.9404297-.7734375-1.625-3.4355469-6.2431641-5.3251953-6.9277344-5.5830078-.5126953-.171875-.9404297-.34375-.9404297-.6865234,0-.2578125.2558594-.2578125.4277344-.2578125.6835938,0,3.9335938.2578125,4.6181641.2578125,4.9599609,0,4.9599609-.6015625,4.9599609-5.4121094,0-5.2392578,0-19.7548828-.0849609-21.8164062,0-.6005859-.0859375-2.4902344-2.2236328-2.4902344-4.1054688,0-10.2636719.0859375-12.2304688.34375-.0859375,0-.5986328.0849609-.6845703.0849609-.3417969,0-.5126953-.1708984-.7695312-.5146484l-1.7099609-1.9755859c-.2568359-.4296875-.3427734-.4296875-.3427734-.6015625s.0859375-.171875.3427734-.171875c.4277344,0,2.6513672.2578125,3.078125.2578125,3.1650391.171875,8.4677734.34375,11.6318359.34375,1.5400391,0,2.9082031,0,2.9082031-2.4052734,0-5.5830078,0-6.2695312-2.3945312-6.2695312-2.6513672,0-7.3554688.0859375-9.5791016.2578125-.3417969,0-1.625.1708984-1.8818359.1708984s-.4277344-.1708984-.6845703-.5146484l-1.7099609-1.9755859q-.3417969-.4296875-.3417969-.6015625c0-.171875.0849609-.171875.2558594-.171875.6845703,0,3.3359375.2578125,3.8486328.2578125,3.1650391.171875,7.0136719.34375,10.0927734.34375,2.3945312,0,2.3945312-1.5458984,2.3945312-3.0058594,0-4.6386719,0-5.7548828-2.3945312-5.7548828h-2.1386719c-2.3945312,0-6.8417969.0859375-8.5527344.171875-.2558594.0859375-1.5390625.2568359-1.7958984.2568359-.3417969,0-.5126953-.2568359-.7695312-.6005859l-1.625-1.9755859c-.3417969-.34375-.4277344-.4296875-.4277344-.515625,0-.171875.1708984-.2578125.3417969-.2578125.5986328,0,3.25.2578125,3.7636719.34375.7695312,0,6.8417969.2578125,10.9472656.2578125h5.6445312c1.9667969,0,2.8222656,0,7.1845703-9.7060547,1.1972656-2.7480469,2.0517578-6.1835938,2.1376953-6.3554688.0859375-.4296875.2568359-.7734375.5986328-.7734375s7.6123047,2.9208984,7.6123047,4.1230469c0,.6015625-.4277344,1.0302734-2.1386719,2.0615234-2.1376953,1.2880859-10.0917969,9.8769531-10.0917969,10.1347656,0,.34375.5986328.515625,1.1113281.515625,5.1318359,0,5.7304688,0,6.6708984-1.4599609,1.796875-2.8349609,1.9677734-3.0927734,2.9082031-3.0927734.5986328,0,8.0390625,4.5527344,8.0390625,5.6689453,0,1.203125-1.7099609,1.203125-4.6181641,1.203125h-13.9404297c-2.3095703,0-2.9931641.171875-2.9931641,6.4414062,0,2.2333984,1.7099609,2.3193359,2.6513672,2.3193359h2.2236328c3.4208984,0,3.7626953,0,4.4472656-.6015625.5986328-.6005859,2.8222656-4.2080078,3.5917969-4.2080078.3417969,0,7.6123047,4.7236328,7.6123047,5.8398438,0,1.203125-1.625,1.203125-4.5332031,1.203125h-13.5986328Zm-9.1513672-19.7558594c0,3.2646484-2.0527344,4.8964844-3.5917969,4.8964844-1.5400391,0-1.9667969-1.6318359-2.3945312-3.4355469-1.0263672-4.4667969-2.7373047-7.7304688-4.1914062-9.9638672-.4277344-.6875-.5126953-.8583984-.5126953-1.1162109s.1708984-.34375.5126953-.34375c1.1972656,0,5.1318359,1.9755859,8.2958984,5.4111328,1.625,1.8896484,1.8818359,3.4355469,1.8818359,4.5517578Zm8.9804688,30.6640625c-.9414062,0-2.6513672,0-2.6513672,2.1474609,0,1.8896484,3.9335938,9.8769531,5.3027344,9.8769531,2.0527344,0,7.8681641-10.0488281,7.8681641-10.9941406,0-1.0302734-.7695312-1.0302734-1.1123047-1.0302734h-9.4072266Z"/>
      </g>
      <rect class="cls-1" x="448.245218" y="101.2128244" width="647.9134656" height="49.3323384"/>
      <g>
        <path class="cls-2" d="m588.7407227,126.5761719l1.7714844.4101562c.2382812.0683594.7148438.1708984.7148438.5478516,0,.3759766-.4765625.4785156-.8173828.5126953-.4423828,3.1816406-1.3964844,10.4345703-10.3193359,13.7529297-1.3623047-1.8134766-1.6689453-2.1552734-2.5878906-3.0449219,9.0927734-2.2919922,9.3994141-9.7158203,9.5019531-12.1787109h-9.6044922v-3.3183594h13.7587891v-4.9267578h-7.6289062c-1.0556641,1.7451172-2.0087891,2.8056641-2.8603516,3.7294922-.6474609-.5136719-2.1113281-1.3349609-3.2695312-1.7109375,2.7246094-2.8398438,4.9726562-6.5341797,5.8232422-9.9550781l3.3720703,1.0947266c.2724609.1025391.6474609.2050781.6474609.5126953,0,.3769531-.375.4453125-.8857422.4794922-.2041016.6494141-.5107422,1.4365234-1.0214844,2.5654297h5.8232422v-4.8916016l3.8486328.2734375c.2382812,0,.6474609.0341797.6474609.4443359,0,.2744141-.375.5136719-.7490234.6503906v3.5234375h10.9326172v3.2841797h-10.9326172v4.9267578h13.3837891v3.3183594h-9.7744141v9.6816406c0,1.3339844.5449219,1.3339844,1.4990234,1.3339844h3.5419922c1.1582031,0,1.8730469-.4453125,2.2480469-4.0371094,1.2255859.8896484,1.9072266,1.2314453,3.3037109,1.5742188-.8857422,4.1044922-1.8740234,5.6787109-4.359375,5.6787109h-5.4833984c-2.078125,0-4.4277344-.1708984-4.4277344-3.8662109v-10.3652344h-6.0966797Z"/>
        <path class="cls-2" d="m631.8950195,118.9130859c.1699219.1025391.4082031.3076172.4082031.5810547,0,.5478516-.5449219.5136719-1.1230469.4453125-1.1582031,1.8808594-2.8955078,3.8652344-3.4404297,4.515625.3408203.1025391.8857422.2734375.8857422.5810547,0,.3085938-.4082031.4794922-.6474609.5478516v15.9755859h-3.7119141v-13.5126953c-1.1240234,1.0947266-2.3164062,2.1552734-3.5419922,3.0791016-.7490234-.9921875-1.9072266-1.8476562-2.7246094-2.3261719,5.7216797-4.0029297,9.8085938-9.5449219,10.8642578-11.7001953l3.03125,1.8134766Zm-1.3964844-7.1162109c.1699219.1025391.3408203.3427734.3408203.5136719,0,.3759766-.4765625.4443359-.9873047.3417969-2.9296875,3.3183594-5.2109375,5.4052734-8.71875,7.765625-.8515625-1.1289062-2.078125-1.984375-2.7587891-2.3603516,3.1669922-1.8476562,7.2197266-5.4052734,9.2636719-8.1074219l2.8603516,1.8466797Zm14.7470703,25.3154297c0,3.7978516-2.4521484,4.4472656-7.3222656,4.3447266-.4091797-2.1894531-.6816406-2.8046875-1.2607422-3.7285156,1.4648438.2050781,2.4189453.2734375,2.8613281.2734375,1.703125,0,1.9755859-.4101562,1.9755859-1.6074219v-12.8291016h-9.7412109v-3.3183594h18.5273438v3.3183594h-5.0400391v13.546875Zm3.7802734-22.4072266h-15.8710938v-3.3183594h15.8710938v3.3183594Z"/>
        <path class="cls-2" d="m678.081543,141.5595703h-3.2353516v-6.7392578c-4.0878906,3.9003906-9.4345703,5.9189453-11.75,6.7734375-1.0224609-1.6416016-1.4306641-2.1201172-2.2822266-2.7363281,6.2324219-1.5732422,9.8085938-3.8320312,11.6474609-5.234375h-11.5117188v-2.6679688h13.8964844v-2.6005859l3.3369141.2060547c.2724609,0,.7832031.1025391.7832031.5126953,0,.3759766-.4423828.5126953-.8847656.6162109v1.265625h14.03125v2.6679688h-11.6474609c4.1552734,2.9423828,8.2753906,4.3105469,11.1708984,5.0292969-.9541016,1.0605469-1.4990234,1.8808594-1.9414062,2.9072266-2.6220703-.8886719-7.4589844-2.7363281-11.6132812-6.5683594v6.5683594Zm-17.0976562-20.4912109v-2.6347656h10.2177734c.2041016-.2392578,1.4306641-1.8125,2.1796875-3.1132812h-7.765625v2.2587891h-3.3710938v-4.8583984h12.328125v-2.5654297l3.78125.1708984c.2724609,0,.8173828.0341797.8173828.4101562,0,.4453125-.4433594.5820312-.8173828.6503906v1.3339844h12.3623047v4.7548828h-3.5078125v-2.1552734h-11.1367188c1.0214844.2744141,1.5322266.4111328,1.5322266.71875,0,.3417969-.578125.3417969-.953125.3417969-.4091797.6162109-.5791016.9238281-1.4990234,2.0527344h16.9267578v2.6347656h-8.2421875c.375.1367188.6474609.2734375.6474609.5126953,0,.3769531-.6806641.4453125-1.0214844.4453125-.7832031.9228516-1.4306641,1.5048828-2.3505859,2.2578125,1.7714844.4785156,5.2109375,1.6416016,8.4130859,3.25-.4775391.5126953-1.3291016,1.4023438-2.0439453,2.7363281-4.3251953-2.4628906-6.9140625-3.2841797-9.2636719-4.0371094-2.1113281,1.1289062-6.8457031,3.2841797-14.0996094,3.6953125-.375-1.4023438-.5107422-1.7792969-1.328125-2.9423828,4.4609375-.0683594,7.6972656-.5126953,11.1025391-1.8818359-.8857422-.1708984-2.6220703-.5126953-4.0869141-.7177734-.375.4101562-.6474609.6152344-1.0214844.9580078-1.7373047-1.1972656-2.4521484-1.3691406-2.9296875-1.4716797.6816406-.5810547,1.6015625-1.3339844,3.03125-2.8046875h-7.9013672Zm12.0566406,0c-.3066406.3759766-.9189453.9921875-1.3964844,1.5048828,3.1337891.4443359,3.6445312.5136719,5.5517578.8896484,1.0214844-.6503906,1.9755859-1.3681641,2.8945312-2.3945312h-7.0498047Z"/>
        <path class="cls-2" d="m732.3383789,115.9023438v21.7919922c0,1.5732422,0,3.8310547-4.6318359,3.8310547h-2.2822266c-.2041016-1.7441406-.4423828-2.3945312-1.2939453-3.8652344,1.0214844.2050781,2.0087891.2734375,3.03125.2734375.7832031,0,1.5322266,0,1.5322266-1.5390625v-17.0712891h-8.5820312c.1357422,2.0527344.4765625,8.1074219,8.4453125,12.2128906-.9189453.6845703-1.7021484,1.4033203-2.5537109,2.7714844-4.5302734-2.4628906-6.4365234-5.9873047-7.6289062-8.9287109-1.4990234,3.3867188-4.0527344,7.1835938-7.8330078,9.578125-.6132812-1.1289062-1.1923828-1.8466797-2.4863281-2.9414062,7.1523438-4.0712891,8.0712891-9.5107422,8.2753906-12.6923828h-8.4804688v22.2363281h-3.6435547v-25.6572266h12.2265625v-5.78125l3.9169922.2392578c.3066406.0341797.6464844.1025391.6464844.4785156,0,.3769531-.2724609.4453125-.9189453.6162109v4.4472656h12.2607422Z"/>
        <path class="cls-2" d="m768.5454102,121.2734375v3.2158203h-17.3691406v-3.1816406c-2.1464844,1.4023438-3.6445312,2.0869141-4.6318359,2.5654297-.3066406-.4443359-1.2265625-1.7441406-2.7246094-2.8730469,4.8359375-1.6767578,11.8173828-6.3632812,14.4404297-11.1875l4.1210938.6503906c.3056641.0341797.5449219.2392578.5449219.4785156,0,.2744141-.2392578.3769531-.8857422.5136719,2.2138672,3.0791016,8.7861328,7.4580078,14.0996094,9.1679688-1.1923828.8212891-2.3496094,2.9082031-2.4179688,3.0449219-7.4589844-3.1132812-11.8857422-7.6972656-13.9296875-9.8183594-2.3837891,2.53125-4.5634766,4.8232422-8.5488281,7.4238281h17.3017578Zm-22.3759766,15.9414062c.5791016-.0341797,4.6660156-.3076172,5.1083984-.3417969,1.0898438-1.7441406,1.9755859-3.1474609,3.4746094-6.6025391h-8.71875v-3.2158203h28.1650391v3.2158203h-8.6845703c2.4179688,2.0869141,6.1308594,5.8496094,8.3779297,9.1679688-1.1240234.71875-2.0429688,1.5742188-2.8945312,2.4980469-1.3623047-2.0869141-1.9414062-2.8056641-2.6904297-3.7294922-2.1796875.3427734-7.2207031,1.0263672-9.4003906,1.2666016-1.703125.2050781-9.2294922.9912109-10.7617188,1.1630859-.1708984.4785156-.3066406.8544922-.75.8544922-.2714844,0-.3740234-.3417969-.4423828-.6152344l-.7832031-3.6611328Zm19.1748047-6.9443359h-5.8242188c.0341797.0683594.1025391.1708984.1025391.2734375,0,.5136719-.8173828.5820312-1.1923828.6162109-.3066406.6152344-1.703125,3.2841797-3.03125,5.4052734,3.2011719-.3076172,7.390625-.6503906,10.5234375-1.1289062-.8164062-.8896484-1.4980469-1.6083984-3.0986328-3.0449219l2.5205078-2.1210938Z"/>
        <path class="cls-2" d="m800.222168,111.1132812v10.9472656h-9.5361328v19.4306641h-3.4404297v-30.3779297h12.9765625Zm-3.3037109,4.3789062v-1.8134766h-6.2324219v1.8134766h6.2324219Zm-6.2324219,2.1552734v1.8466797h6.2324219v-1.8466797h-6.2324219Zm16.0410156,12.2128906h4.2568359v2.8730469h-4.2568359v7.7998047h-3.2011719v-7.7998047h-3.5419922c-.6816406,3.6269531-2.3505859,6.3632812-5.3476562,8.4160156-.953125-1.1630859-1.3623047-1.4023438-2.7246094-2.0185547,2.5888672-1.5732422,4.1894531-3.5576172,4.8027344-6.3974609h-4.0537109v-2.8730469h4.4277344c.0341797-.5136719.0341797-.7529297.0341797-2.9082031h-3.5419922v-2.7363281h16.3818359v2.7363281h-3.2353516v2.9082031Zm-3.2011719-2.9082031h-3.2363281v2.9082031h3.2363281v-2.9082031Zm12.6347656-15.8388672v25.9306641c0,4.0712891-1.9746094,4.4814453-5.9941406,4.4814453-.1357422-.8544922-.3398438-1.7099609-1.4638672-3.6601562.4765625.1025391,1.2939453.2392578,2.28125.2392578.9541016,0,1.703125-.2050781,1.703125-1.5048828v-14.5048828h-9.6044922v-10.9814453h13.078125Zm-3.4736328,4.4130859v-1.8134766h-6.3007812v1.8134766h6.3007812Zm-6.3007812,2.1210938v1.8466797h6.3007812v-1.8466797h-6.3007812Z"/>
        <path class="cls-2" d="m858.668457,122.9492188v2.6689453h-7.9013672v2.2919922h6.5390625v2.6679688h-6.5390625v2.2578125h6.5390625v2.6689453h-6.5390625v2.3603516h8.2080078v2.7021484h-16.8242188v.9580078h-3.40625v-13.2734375c-.7832031.8554688-1.0556641,1.1289062-1.4296875,1.5058594-.7832031-1.2314453-1.3964844-1.7792969-2.3164062-2.4296875v14.1972656h-3.5078125v-18.3701172c-1.1914062,1.7783203-1.8388672,2.5654297-2.2480469,3.078125-.8847656-1.2998047-1.4296875-1.8808594-2.5195312-2.53125,2.1455078-2.6337891,5.5849609-6.9785156,7.5605469-13.8554688l3.3710938,1.1289062c.2734375.1035156.4775391.2744141.4775391.5136719,0,.2734375-.2041016.3759766-.8515625.5810547-1.1582031,2.8398438-1.4990234,3.5927734-2.4521484,5.4394531.8857422.2744141.9873047.3085938.9873047.5478516,0,.3076172-.1699219.3759766-.8173828.6503906v8.5517578c3.1337891-2.7363281,5.6542969-6.7734375,6.5048828-8.5869141h-2.9287109v-7.8681641l3.4736328.1367188c.3066406,0,.6816406.1035156.6816406.4453125,0,.3076172-.1025391.3417969-.8515625.7177734v3.8320312h4.2910156v-5.9863281l3.6103516.2050781c.2382812,0,.7148438.1025391.7148438.4101562,0,.4794922-.6123047.5820312-.9189453.6503906v4.7207031h4.5634766v-5.0634766l3.5419922.2402344c.3066406.0341797.7490234.0341797.7490234.3759766s-.2041016.4101562-.8847656.6845703v6.4990234h-8.0039062l2.4863281,1.3349609c.1699219.1025391.4423828.2734375.4423828.546875,0,.3076172-.1025391.3427734-.953125.4794922-.6132812,1.0947266-.8173828,1.4707031-1.1240234,1.9150391h8.2753906Zm-16.5175781,2.6689453v2.2919922h5.2451172v-2.2919922h-5.2451172Zm0,4.9599609v2.2578125h5.2451172v-2.2578125h-5.2451172Zm0,4.9267578v2.3603516h5.2451172v-2.3603516h-5.2451172Zm4.4960938-12.5556641c.9189453-1.3681641,1.6679688-2.7705078,2.2470703-4.2763672h-6.4707031l2.1113281,1.1298828c.3408203.1708984.5107422.3076172.5107422.546875,0,.2734375-.2041016.3417969-.9189453.4101562-.3066406.5478516-.5449219,1.0263672-1.328125,2.1894531h3.8486328Z"/>
        <path class="cls-2" d="m886.9057617,141.5253906h-3.6445312v-10.5703125h-8.71875v1.7441406h-3.6777344v-15.6337891h12.3964844v-6.9443359l3.8828125.2734375c.1357422,0,.6474609.0341797.6474609.5126953,0,.3085938-.5117188.4111328-.8857422.4794922v5.6787109h12.4306641v15.5996094h-3.6435547v-1.7099609h-8.7871094v10.5703125Zm-3.6445312-21.1757812h-8.71875v7.1845703h8.71875v-7.1845703Zm3.6445312,7.1845703h8.7871094v-7.1845703h-8.7871094v7.1845703Z"/>
        <path class="cls-2" d="m933.2973633,136.0175781l-2.4189453-1.8808594,7.4931641-8.6894531-7.4931641-8.6894531,2.4189453-1.8818359,8.9902344,10.5712891-8.9902344,10.5703125Z"/>
        <path class="cls-2" d="m957.9907227,136.0175781l-2.4179688-1.8808594,7.4931641-8.6894531-7.4931641-8.6894531,2.4179688-1.8818359,8.9921875,10.5712891-8.9921875,10.5703125Z"/>
      </g>
    </g>
  </g>
</svg>